<svg width="32" height="32" viewBox="0 0 32 32" fill="none" xmlns="http://www.w3.org/2000/svg">
<path d="M22.7427 27.04C21.4361 28.3067 20.0094 28.1067 18.6361 27.5067C17.1827 26.8933 15.8494 26.8667 14.3161 27.5067C12.3961 28.3333 11.3827 28.0933 10.2361 27.04C3.72941 20.3333 4.68941 10.12 12.0761 9.74667C13.8761 9.84 15.1294 10.7333 16.1827 10.8133C17.7561 10.4933 19.2627 9.57333 20.9427 9.69333C22.9561 9.85333 24.4761 10.6533 25.4761 12.0933C21.3161 14.5867 22.3027 20.0667 26.1161 21.6C25.3561 23.6 24.3694 25.5867 22.7294 27.0533L22.7427 27.04ZM16.0494 9.66667C15.8494 6.69333 18.2627 4.24 21.0361 4C21.4227 7.44 17.9161 10 16.0494 9.66667Z" fill="black"/>
</svg>
