<svg width="60" height="61" viewBox="0 0 60 61" fill="none" xmlns="http://www.w3.org/2000/svg">
<path d="M30 21.75H42.5L50 28H52.5C55.275 28 57.5 30.225 57.5 33V40.5H52.075C51 43.5 48.175 45.5 45 45.5C41.825 45.5 39 43.5 37.95 40.5H22.075C21 43.5 18.175 45.5 15 45.5C11.825 45.5 9 43.5 7.95 40.5H2.5V38C2.5 35.225 5.075 34.325 7.5 33L30 21.75ZM46.875 30.5L41.25 25.5H31.25L21.25 30.5H46.875ZM45 34.25C44.0054 34.25 43.0516 34.6451 42.3483 35.3483C41.6451 36.0516 41.25 37.0054 41.25 38C41.25 38.9946 41.6451 39.9484 42.3483 40.6516C43.0516 41.3549 44.0054 41.75 45 41.75C45.9946 41.75 46.9484 41.3549 47.6517 40.6516C48.3549 39.9484 48.75 38.9946 48.75 38C48.75 37.0054 48.3549 36.0516 47.6517 35.3483C46.9484 34.6451 45.9946 34.25 45 34.25ZM15 34.25C14.0054 34.25 13.0516 34.6451 12.3484 35.3483C11.6451 36.0516 11.25 37.0054 11.25 38C11.25 38.9946 11.6451 39.9484 12.3484 40.6516C13.0516 41.3549 14.0054 41.75 15 41.75C15.9946 41.75 16.9484 41.3549 17.6516 40.6516C18.3549 39.9484 18.75 38.9946 18.75 38C18.75 37.0054 18.3549 36.0516 17.6516 35.3483C16.9484 34.6451 15.9946 34.25 15 34.25Z" fill="#FDCD03"/>
</svg>
