<svg width="60" height="61" viewBox="0 0 60 61" fill="none" xmlns="http://www.w3.org/2000/svg">
<path d="M47.3 5.525C46.8 4.05 45.4 3 43.75 3H16.25C14.6 3 13.225 4.05 12.7 5.525L7.775 19.7C7.6 20.225 7.5 20.775 7.5 21.35V39.25C7.5 41.325 9.175 43 11.25 43C13.325 43 15 41.325 15 39.25V38H45V39.25C45 41.3 46.675 43 48.75 43C50.8 43 52.5 41.325 52.5 39.25V21.35C52.5 20.8 52.4 20.225 52.225 19.7L47.3 5.525ZM16.25 30.5C14.175 30.5 12.5 28.825 12.5 26.75C12.5 24.675 14.175 23 16.25 23C18.325 23 20 24.675 20 26.75C20 28.825 18.325 30.5 16.25 30.5ZM43.75 30.5C41.675 30.5 40 28.825 40 26.75C40 24.675 41.675 23 43.75 23C45.825 23 47.5 24.675 47.5 26.75C47.5 28.825 45.825 30.5 43.75 30.5ZM12.5 18L15.675 8.45C16.025 7.45 16.975 6.75 18.05 6.75H41.95C43.025 6.75 43.975 7.45 44.325 8.45L47.5 18H12.5ZM17.5 50.5H27.5V45.5L42.5 53H32.5V58L17.5 50.5Z" fill="#FDCD03"/>
</svg>
