<svg width="182" height="185" viewBox="0 0 182 185" fill="none" xmlns="http://www.w3.org/2000/svg">
<path d="M18.4879 177.92C17.4334 179.934 15.6759 181.49 13.5492 182.293C12.2888 182.794 10.9455 183.054 9.58902 183.06C8.68236 183.058 7.77942 182.944 6.9008 182.72C4.69178 182.167 2.7776 180.791 1.55013 178.873C0.480525 177.182 -0.05761 175.209 0.00517381 173.208C0.00724548 172.519 0.0554176 171.831 0.149369 171.148C0.334763 169.567 0.576808 168.774 0.860049 168.774C1.14329 168.774 1.22568 169.593 1.15873 171.21C1.02494 172.716 1.3866 174.224 2.1887 175.505C2.60291 176.126 3.16662 176.634 3.82803 176.98C4.48943 177.326 5.22731 177.501 5.97384 177.488C7.1254 177.535 8.27049 177.294 9.30578 176.787C10.607 176.18 11.2576 175.349 11.2576 174.295V162.538H18.5755V172.534H21.8353V162.538H28.8958V172.534H32.2123L32.2689 162.538H39.216V177.9L18.4879 177.92Z" fill="black"/>
<path d="M43.0319 162.538H50.149V179.265C50.1589 179.837 50.0484 180.405 49.8249 180.932C49.6013 181.459 49.2696 181.933 48.8513 182.324C48.0292 183.125 46.9523 183.613 45.8077 183.704C43.8567 183.884 41.8931 183.884 39.942 183.704C39.5045 183.679 39.0752 183.574 38.6752 183.395C38.3971 183.261 38.2632 183.132 38.2632 183.008C38.2632 182.751 38.8194 182.591 39.9266 182.53C40.4724 182.5 41.0022 182.335 41.4674 182.048C41.9326 181.761 42.3183 181.362 42.5891 180.887C42.8715 180.47 43.0255 179.979 43.0319 179.476V162.538Z" fill="black"/>
<path d="M58.9462 156.693V172.555H62.0927V177.921H51.8291V156.693H58.9462Z" fill="black"/>
<path d="M90.1121 177.92H59.728V172.554H82.6809V170.021H64.0127C63.3071 170.096 62.6585 170.443 62.2051 170.989V165.793C62.2206 164.957 62.5582 164.16 63.1475 163.568C63.4108 163.252 63.7388 162.997 64.1093 162.819C64.4798 162.642 64.8842 162.546 65.295 162.538H90.1121V177.92Z" fill="black"/>
<path d="M119.79 177.92C119.75 178.137 119.693 178.351 119.62 178.559C119.099 179.72 118.341 180.76 117.395 181.612C116.449 182.463 115.335 183.107 114.125 183.503C112.938 183.911 111.692 184.122 110.437 184.126C109.161 184.123 107.895 183.902 106.694 183.472C105.528 183.09 104.457 182.466 103.549 181.642C102.641 180.817 101.918 179.811 101.425 178.688C100.967 177.648 100.735 176.523 100.745 175.387C100.787 173.646 101.178 171.932 101.894 170.345C102.332 169.315 102.666 168.8 102.893 168.8C102.986 168.8 103.037 168.924 103.037 169.171C102.99 169.604 102.89 170.029 102.738 170.438C102.517 171.09 102.401 171.773 102.393 172.461C102.381 173.229 102.579 173.986 102.965 174.65C103.274 175.193 103.693 175.666 104.195 176.038C104.697 176.411 105.27 176.675 105.88 176.813C106.359 176.936 106.852 176.998 107.348 176.998C108.18 176.987 109.003 176.813 109.768 176.484C111.065 175.936 112.121 174.939 112.745 173.677V156.682H120.006V172.544H122.313V177.91L119.79 177.92Z" fill="black"/>
<path d="M141.003 172.555V177.921H119.75V172.555H121.429V166.761C121.418 165.663 121.823 164.602 122.562 163.79C122.902 163.384 123.328 163.058 123.808 162.836C124.289 162.613 124.813 162.499 125.342 162.502H139.247V172.555H141.003ZM133.278 156.693C133.319 157.096 133.277 157.502 133.156 157.888C133.035 158.274 132.836 158.631 132.573 158.938C132.291 159.23 131.953 159.463 131.58 159.623C131.207 159.783 130.805 159.867 130.399 159.871C129.993 159.874 129.591 159.796 129.215 159.643C128.839 159.489 128.498 159.262 128.211 158.974C127.655 158.343 127.341 157.534 127.325 156.693H133.278ZM131.733 172.555V169.851H128.86V172.555H131.733Z" fill="black"/>
<path d="M181.99 177.92H139.478V172.523H174.816V169.634H148.552C147.736 169.667 146.924 169.514 146.176 169.187C145.428 168.859 144.765 168.366 144.236 167.744C143.181 166.475 142.655 164.848 142.769 163.202C142.765 162.342 142.931 161.49 143.257 160.695C143.583 159.9 144.063 159.177 144.669 158.567C145.289 157.975 146.021 157.514 146.823 157.211C147.624 156.907 148.478 156.768 149.335 156.801C150.365 156.801 150.88 156.852 150.88 156.945C150.88 157.038 150.699 157.228 150.339 157.501C149.998 157.757 149.7 158.067 149.458 158.418C149.132 158.918 148.953 159.5 148.943 160.097C148.945 160.505 149.048 160.906 149.242 161.266C149.441 161.683 149.76 162.031 150.158 162.267C150.556 162.503 151.015 162.615 151.477 162.589H175.408C176.565 162.595 177.698 162.919 178.684 163.526C179.678 164.114 180.51 164.941 181.104 165.931C181.667 166.814 181.977 167.835 182 168.882L181.99 177.92Z" fill="black"/>
<path d="M32.5577 138.092V140.105H29.4678C29.37 140.105 29.3236 140.038 29.3236 139.91V137.304C29.3236 137.154 29.267 137.082 29.1537 137.082H28.1855C28.0774 137.082 28.0259 137.165 28.0259 137.324V139.776C28.0259 139.997 27.9847 140.11 27.9023 140.11H21.7431C21.626 140.111 21.5103 140.085 21.405 140.035C21.2996 139.984 21.2073 139.909 21.1354 139.817C20.9832 139.637 20.9009 139.409 20.9036 139.173V135.053C20.9071 134.947 20.9385 134.844 20.9945 134.753C21.0505 134.663 21.1293 134.589 21.2229 134.538C21.3939 134.414 21.5989 134.346 21.81 134.343H23.7566C23.906 134.343 23.9832 134.343 23.9884 134.399C23.9935 134.456 23.9523 134.466 23.8545 134.502C23.8042 134.529 23.7625 134.569 23.7342 134.618C23.7059 134.667 23.6923 134.724 23.6949 134.78V137.819C23.6949 138.004 23.7567 138.092 23.8751 138.092H25.1986C25.317 138.092 25.3788 138.025 25.3788 137.896V135.192C25.3788 134.621 25.7754 134.332 26.5788 134.332H31.0128H31.1003C31.2639 134.342 31.422 134.394 31.5586 134.485C31.6952 134.575 31.8054 134.7 31.8779 134.847C31.9752 134.989 32.0305 135.155 32.0376 135.326V138.123L32.5577 138.092ZM24.2768 141.758H22.0469C22.053 141.441 22.1717 141.136 22.3816 140.898C22.4881 140.782 22.6191 140.691 22.7652 140.631C22.9112 140.571 23.0687 140.545 23.2262 140.553C23.3758 140.553 23.5239 140.584 23.6599 140.647C23.796 140.709 23.9169 140.8 24.0141 140.914C24.1109 141.03 24.1835 141.165 24.2277 141.31C24.2719 141.455 24.2868 141.608 24.2716 141.758H24.2768ZM26.9135 141.758H24.6785C24.6855 141.441 24.804 141.137 25.0132 140.898C25.1191 140.783 25.2493 140.692 25.3944 140.632C25.5395 140.572 25.6959 140.545 25.8526 140.553C26.0031 140.552 26.1521 140.583 26.2891 140.646C26.4262 140.708 26.5479 140.799 26.6457 140.914C26.742 141.033 26.8134 141.169 26.8559 141.316C26.8983 141.463 26.9109 141.617 26.8929 141.769L26.9135 141.758Z" fill="#231F20"/>
<path d="M44.7681 140.106H32.0737V138.092H33.2633V134.343H36.0082V138.092H37.2339V134.343H39.8809V138.092H41.1375V134.343H43.7124V138.092H44.7423L44.7681 140.106Z" fill="#231F20"/>
<path d="M59.9389 140.105H43.9744V138.081H57.2249V137H47.4041C47.0983 137.012 46.7937 136.955 46.5135 136.831C46.2333 136.708 45.9849 136.523 45.7871 136.289C45.3917 135.813 45.1944 135.203 45.2361 134.585C45.2352 134.263 45.298 133.943 45.4209 133.646C45.5437 133.348 45.7242 133.077 45.9519 132.849C46.183 132.626 46.4569 132.453 46.7569 132.339C47.0569 132.224 47.3769 132.172 47.6977 132.185C48.0891 132.185 48.2848 132.185 48.2848 132.242C48.2848 132.298 48.2178 132.345 48.0839 132.448C47.9514 132.542 47.8364 132.659 47.744 132.793C47.6153 132.977 47.5436 133.196 47.538 133.421C47.5384 133.574 47.5774 133.724 47.6513 133.859C47.7229 134.019 47.8414 134.154 47.9912 134.246C48.1411 134.338 48.3152 134.383 48.4908 134.374H57.4669C57.9006 134.376 58.3251 134.499 58.6926 134.729C59.0675 134.948 59.3811 135.258 59.6041 135.63C59.8139 135.962 59.9296 136.345 59.9389 136.737V140.105Z" fill="#231F20"/>
<path d="M63.3647 132.154V138.102H64.544V140.116H60.6919V132.154H63.3647Z" fill="#231F20"/>
<path d="M69.1774 140.095H63.9709V138.092H66.5459V134.322H69.1671L69.1774 140.095ZM66.6746 132.154C66.6898 132.305 66.6739 132.457 66.6278 132.602C66.5817 132.746 66.5065 132.879 66.4068 132.993C66.308 133.106 66.1859 133.196 66.0489 133.256C65.912 133.317 65.7634 133.346 65.6137 133.344C65.4576 133.355 65.3008 133.331 65.1554 133.273C65.0099 133.215 64.8796 133.125 64.7743 133.009C64.5666 132.772 64.4498 132.469 64.4447 132.154H66.6746ZM69.1259 132.154C69.1391 132.303 69.1222 132.453 69.0762 132.596C69.0302 132.738 68.956 132.87 68.8581 132.983C68.7609 133.097 68.64 133.188 68.5039 133.25C68.3679 133.313 68.2199 133.344 68.0702 133.344C67.9136 133.357 67.7561 133.334 67.6097 133.277C67.4633 133.22 67.332 133.13 67.2256 133.014C67.0172 132.775 66.8988 132.471 66.8909 132.154H69.1259Z" fill="#231F20"/>
<path d="M115.687 0.874146V26.1856H160.732C160.732 26.1856 161.474 6.10123 143.223 0.874146H115.687Z" fill="#FDCD03"/>
<path d="M160.737 53.7368V118.141C160.737 118.141 159.614 136.757 142.115 140.105H69.8936C69.8936 140.105 105.263 133.41 113.451 99.1532C113.451 99.1532 117.174 70.4892 115.686 53.7368H160.737Z" fill="#FDCD03"/>
<path d="M87.3928 26.1856V0.874146H40.8537C20.7693 6.08578 20.3779 26.1856 20.3779 26.1856H32.2947V40.7082H20.3779V114.418H56.4938C86.2753 111.07 87.3928 86.8713 87.3928 86.8713V40.3322H75.1053V26.1856H87.3928ZM74.7345 53.7373H60.7733V40.1468H47.4352V53.7373H33.474V39.776H46.812V26.1856H60.7733V39.776H74.7345V53.7373Z" fill="#FDCD03"/>
</svg>
