<svg width="60" height="61" viewBox="0 0 60 61" fill="none" xmlns="http://www.w3.org/2000/svg">
<path d="M57.5 15.5L53.75 19.25L57.5 23L53.75 26.75L57.5 30.5L53.75 34.25L57.5 38H22.5C22.5 39.9891 21.7098 41.8968 20.3033 43.3033C18.8968 44.7098 16.9891 45.5 15 45.5C13.0109 45.5 11.1032 44.7098 9.6967 43.3033C8.29018 41.8968 7.5 39.9891 7.5 38H2.5V30.5C2.5 27.725 4.725 25.5 7.5 25.5H12.5L20 15.5H57.5ZM48.45 19.25H33.75V25.5H49.7L52.2 23L48.45 19.25ZM30 19.25H21.25L16.35 25.5H30V19.25ZM15 34.25C14.0054 34.25 13.0516 34.6451 12.3484 35.3483C11.6451 36.0516 11.25 37.0054 11.25 38C11.25 38.9946 11.6451 39.9484 12.3484 40.6516C13.0516 41.3549 14.0054 41.75 15 41.75C15.9946 41.75 16.9484 41.3549 17.6516 40.6516C18.3549 39.9484 18.75 38.9946 18.75 38C18.75 37.0054 18.3549 36.0516 17.6516 35.3483C16.9484 34.6451 15.9946 34.25 15 34.25Z" fill="#FDCD03"/>
</svg>
