<svg width="428" height="216" viewBox="0 0 428 216" fill="none" xmlns="http://www.w3.org/2000/svg">
<path fill-rule="evenodd" clip-rule="evenodd" d="M209.728 0V16.9283H202.139V82.8036H192.17V62.5167H186.919V57.6166L175.435 62.5167H172.621V50.3298L158.88 32.6663L145.139 50.3298V91.7734H138.688V99.8271H129.171V66.9578H121.283L121.611 53.3198H112.483V49.4137H103.234L101.811 25.7931L100.389 49.4137H98.6095V53.3198H96.2092L97.0887 89.8438H95.385V73.7302L76.262 62.5167V82.8036H57.1382V66.9578H45.3335V57.6166L25.1122 71.7931V57.6166L-2 76.6242V215.534H18.2206H25.1122H44.472H45.3335H57.1382H76.262H95.385H99.3484H116.504H118.471H128.065H129.171H145.139H155.547H172.621H192.17H202.139H219.035H226.258H243.2H247.794H263.352H271.823H285.507H290.465H297.522H309.536H312.621H324.635H331.118H336.65H358.23H367.171H378.8H390.43H399.383H402.059H415.048H418.507H430.209V80.1553H421L421.646 53.3198H402.059V14.474H390.43V22.7314H378.8V30.2915H367.171V69.2684H358.23V51.1465H355.046V49.1479H334.303V51.1465H331.118V88.9339H324.635V40.3694H321.45V38.3708H300.707V40.3694H297.522V68.335H290.465V51.1465H287.281V49.1479H266.538V51.1465H263.352V57.6166L256.696 64.7348V76.669H247.794V69.2684H243.2V51.1465H226.258V40.4177L219.035 34.2983V16.9283H211.445V0H209.728Z" fill="#F5C009" fill-opacity="0.2"/>
<path fill-rule="evenodd" clip-rule="evenodd" d="M288.845 77.5468V88.3844H283.979V130.559H277.588V117.571H274.221V114.434L266.858 117.571H265.054V109.768L256.243 98.4601L247.433 109.768V136.301H243.298V141.457H237.195V120.414H232.138L232.348 111.683H226.496V109.182H220.566L219.653 94.0598L218.741 109.182H217.601V111.683H216.062L216.625 135.066H215.533V124.75L203.272 117.571V130.559H191.011V120.414H183.442V114.434L170.477 123.51V114.434L153.094 126.602V215.534H166.058H170.477H182.89H183.442H191.011H203.272H215.533H218.074H229.074H230.335H236.486H237.195H247.433H254.107H265.054H277.588H283.979H294.813H299.444H310.307H313.252H323.227H328.658H337.432H340.611H345.136H352.839H354.816H362.519H366.676H370.223H384.059H389.792H397.248H404.705H410.445H412.161H420.489H422.706H430.209V128.863H424.305L424.719 111.683H412.161V86.8132H404.705V92.0997H397.248V96.9397H389.792V121.893H384.059V110.291H382.018V109.012H368.718V110.291H366.676V134.483H362.519V103.392H360.477V102.112H347.178V103.392H345.136V121.296H340.611V110.291H338.569V109.012H325.27V110.291H323.227V114.434L318.959 118.991V126.631H313.252V121.893H310.307V110.291H299.444V103.423L294.813 99.505V88.3844H289.946V77.5468H288.845Z" fill="#F5C009" fill-opacity="0.85"/>
<path fill-rule="evenodd" clip-rule="evenodd" d="M105.623 109.478V117.718H109.327V149.784H114.194V139.909H116.756V137.524L122.362 139.909H123.736V133.977L130.443 125.379L137.151 133.977V154.151H140.299V158.071H144.945V142.071H148.795L148.635 135.432H153.091V133.531H157.605L158.3 122.033L158.994 133.531H159.863V135.432H161.034L160.605 153.211H161.437V145.368L170.771 139.909V149.784H180.106V142.071H185.868V137.524L195.739 144.425V137.524L208.973 146.776V214.394H199.103H195.739H186.289H185.868H180.106H170.771H161.437H159.502H151.128H150.168H145.485H144.945H137.151H132.07H123.736H114.194H109.327H101.08H97.5541H89.2841H87.0417H79.4475H75.3125H68.6329H66.213H62.7681H56.9037H55.398H49.5336H46.3689H43.6688H33.1351H28.7707H23.0943H17.4172H13.0469H11.7408H5.40054H3.71246H-2V148.495H2.4953L2.18016 135.432H11.7408V116.523H17.4172V120.543H23.0943V124.223H28.7707V143.196H33.1351V134.375H34.6891V133.402H44.8145V134.375H46.3689V152.768H49.5336V129.128H51.0883V128.156H61.2134V129.128H62.7681V142.741H66.213V134.375H67.7673V133.402H77.8924V134.375H79.4475V137.524L82.6966 140.989V146.798H87.0417V143.196H89.2841V134.375H97.5541V129.152L101.08 126.173V117.718H104.785V109.478H105.623Z" fill="#F5C009" fill-opacity="0.2"/>
<path fill-rule="evenodd" clip-rule="evenodd" d="M161.686 213.706H122.008C117.327 213.706 113.498 209.877 113.498 205.196V110.098C113.498 105.417 117.327 101.588 122.008 101.588H161.686C166.367 101.588 170.196 105.417 170.196 110.098V205.196C170.196 209.877 166.367 213.706 161.686 213.706Z" fill="white" stroke="black" stroke-width="2.28079" stroke-linecap="round" stroke-linejoin="round"/>
<path fill-rule="evenodd" clip-rule="evenodd" d="M161.686 213.706H122.008C117.327 213.706 113.498 209.877 113.498 205.196V110.098C113.498 105.417 117.327 101.588 122.008 101.588H161.686C166.367 101.588 170.196 105.417 170.196 110.098V205.196C170.196 209.877 166.367 213.706 161.686 213.706Z" stroke="black" stroke-width="2.28079" stroke-linecap="round" stroke-linejoin="round"/>
<path fill-rule="evenodd" clip-rule="evenodd" d="M146.234 205.549C146.234 207.973 144.269 209.936 141.847 209.936C139.423 209.936 137.46 207.973 137.46 205.549C137.46 203.126 139.423 201.162 141.847 201.162C144.269 201.162 146.234 203.126 146.234 205.549Z" stroke="black" stroke-width="2.28079" stroke-linecap="round" stroke-linejoin="round"/>
<path d="M139.345 106.793H147.986" stroke="black" stroke-width="2.28079" stroke-linecap="round" stroke-linejoin="round"/>
<path d="M135.707 106.793H136.817" stroke="black" stroke-width="2.28079" stroke-linecap="round" stroke-linejoin="round"/>
<path fill-rule="evenodd" clip-rule="evenodd" d="M263.401 161.422C262.901 156.469 254.639 158.374 250.257 158.755C238.255 132.275 229.683 134.18 226.063 134.18C222.444 134.18 194.44 133.989 183.011 134.18C171.58 134.371 164.151 154.945 161.293 158.755C161.293 158.755 148.887 155.421 148.339 159.898C147.925 164.089 150.435 164.851 155.96 165.993C147.959 198.379 157.293 200.093 157.293 200.093V210.19C157.293 213.619 161.293 213.706 161.293 213.706H169.866C172.343 213.706 172.343 209.428 172.343 209.428V201.046H239.208V210.19C239.208 214.572 243.589 213.619 243.589 213.619H250.638C254.257 213.619 254.639 209.809 254.639 209.809V200.093C263.021 192.474 256.924 168.47 255.972 165.423C258.448 165.232 263.691 164.29 263.401 161.422Z" fill="#00BFCC"/>
<path fill-rule="evenodd" clip-rule="evenodd" d="M170.455 156.084C171.321 154.527 172.447 152.08 172.447 152.08C174.542 147.698 176.932 141.606 183.98 141.606H224.938C228.558 141.606 234.082 141.225 239.416 152.464C242.083 157.608 245.512 162.942 238.083 162.942H177.503C173.884 162.942 166.016 164.199 170.455 156.084Z" fill="#FDFFFE"/>
<path fill-rule="evenodd" clip-rule="evenodd" d="M172.576 192.601C169.814 192.601 164.195 191.267 161.337 189.743C158.479 188.219 159.432 182.504 159.718 181.79C160.003 181.076 161.717 179.837 163.242 180.599C164.766 181.361 168.221 182.183 171.91 182.98C176.246 183.919 177.052 186.219 177.529 188.78C178.006 191.342 175.339 192.601 172.576 192.601Z" fill="#FDFFFE"/>
<path fill-rule="evenodd" clip-rule="evenodd" d="M222.052 193.186C215.575 193.757 198.43 193.566 192.715 193.186C187 192.804 181.094 193.757 183 184.994C191.953 185.946 221.29 185.756 228.529 184.994C230.053 188.994 228.529 192.614 222.052 193.186Z" fill="#FDFFFE"/>
<path fill-rule="evenodd" clip-rule="evenodd" d="M251.274 189.743C248.417 191.267 242.797 192.601 240.034 192.601C237.273 192.601 234.605 191.342 235.082 188.781C235.559 186.219 236.366 183.919 240.702 182.98C244.391 182.182 247.845 181.361 249.369 180.599C250.894 179.837 252.608 181.075 252.894 181.79C253.179 182.504 254.132 188.219 251.274 189.743Z" fill="#FDFFFE"/>
<path d="M101.026 213.706H276.566" stroke="black" stroke-width="2.28079" stroke-linecap="round" stroke-linejoin="round"/>
<path d="M280.339 213.706H282.463" stroke="black" stroke-width="2.28079" stroke-linecap="round" stroke-linejoin="round"/>
<path d="M286.759 213.706H313.031C336.577 213.706 342.515 212.308 342.515 205.051C342.515 198.128 336.742 197.794 312.663 197.794C296.501 197.794 288.915 197.3 288.915 190.208C288.915 181.668 303.313 182.501 316.794 182.741" stroke="black" stroke-width="2.28079" stroke-linecap="round" stroke-linejoin="round" stroke-dasharray="6.91 6.91"/>
<path d="M318.946 182.774C319.661 182.781 320.372 182.786 321.075 182.786" stroke="black" stroke-width="2.28079" stroke-linecap="round" stroke-linejoin="round"/>
<path fill-rule="evenodd" clip-rule="evenodd" d="M320.05 151.645C316.031 151.645 312.873 148.55 312.873 144.612C312.873 140.675 316.031 137.58 320.05 137.58C324.068 137.58 327.226 140.675 327.226 144.612C327.226 148.55 324.068 151.645 320.05 151.645ZM320.05 124.92C308.998 124.92 299.956 133.781 299.956 144.612C299.956 159.381 320.05 181.183 320.05 181.183C320.05 181.183 340.144 159.381 340.144 144.612C340.144 133.781 331.102 124.92 320.05 124.92Z" fill="white"/>
<path d="M320.05 181.183L319.211 181.956C319.427 182.191 319.731 182.324 320.05 182.324C320.368 182.324 320.672 182.191 320.888 181.956L320.05 181.183ZM320.05 150.505C316.639 150.505 314.014 147.899 314.014 144.612H311.733C311.733 149.202 315.423 152.786 320.05 152.786V150.505ZM314.014 144.612C314.014 141.326 316.639 138.72 320.05 138.72V136.439C315.424 136.439 311.733 140.023 311.733 144.612H314.014ZM320.05 138.72C323.46 138.72 326.086 141.326 326.086 144.612H328.367C328.367 140.023 324.676 136.439 320.05 136.439V138.72ZM326.086 144.612C326.086 147.899 323.46 150.505 320.05 150.505V152.786C324.676 152.786 328.367 149.202 328.367 144.612H326.086ZM320.05 123.78C308.39 123.78 298.816 133.13 298.816 144.612H301.096C301.096 134.433 309.606 126.061 320.05 126.061V123.78ZM298.816 144.612C298.816 148.54 300.145 152.845 302.059 157.031C303.979 161.233 306.53 165.403 309.064 169.083C311.6 172.766 314.133 175.981 316.032 178.273C316.982 179.42 317.774 180.338 318.33 180.971C318.608 181.287 318.827 181.532 318.977 181.698C319.052 181.782 319.11 181.845 319.149 181.889C319.169 181.91 319.184 181.927 319.195 181.938C319.2 181.944 319.204 181.948 319.207 181.951C319.208 181.953 319.209 181.954 319.21 181.955C319.21 181.955 319.211 181.956 319.211 181.956C319.211 181.956 319.211 181.956 320.05 181.183C320.888 180.411 320.888 180.411 320.888 180.411C320.888 180.41 320.888 180.41 320.888 180.41C320.888 180.41 320.887 180.409 320.886 180.408C320.884 180.405 320.88 180.402 320.876 180.397C320.867 180.387 320.853 180.372 320.835 180.352C320.798 180.312 320.743 180.251 320.671 180.171C320.527 180.011 320.314 179.774 320.043 179.465C319.5 178.847 318.722 177.946 317.788 176.819C315.92 174.562 313.43 171.403 310.942 167.789C308.452 164.173 305.98 160.123 304.133 156.083C302.279 152.028 301.096 148.069 301.096 144.612H298.816ZM320.05 181.183C320.888 181.956 320.889 181.956 320.889 181.956C320.889 181.956 320.889 181.955 320.89 181.955C320.891 181.954 320.892 181.953 320.893 181.951C320.896 181.948 320.9 181.944 320.905 181.938C320.915 181.927 320.93 181.91 320.95 181.889C320.99 181.845 321.048 181.782 321.123 181.698C321.273 181.532 321.492 181.287 321.77 180.971C322.326 180.338 323.118 179.42 324.068 178.273C325.967 175.981 328.5 172.766 331.036 169.083C333.57 165.403 336.12 161.233 338.041 157.031C339.955 152.845 341.284 148.54 341.284 144.612H339.003C339.003 148.069 337.821 152.028 335.967 156.083C334.12 160.123 331.647 164.173 329.157 167.789C326.67 171.403 324.18 174.562 322.311 176.819C321.377 177.946 320.6 178.847 320.057 179.465C319.785 179.774 319.573 180.011 319.428 180.171C319.356 180.251 319.301 180.312 319.265 180.352C319.246 180.372 319.233 180.387 319.224 180.397C319.219 180.402 319.216 180.405 319.214 180.408C319.213 180.409 319.212 180.41 319.212 180.41C319.211 180.41 319.211 180.41 319.211 180.411C319.211 180.411 319.211 180.411 320.05 181.183ZM341.284 144.612C341.284 133.13 331.71 123.78 320.05 123.78V126.061C330.494 126.061 339.003 134.433 339.003 144.612H341.284Z" fill="black"/>
<path d="M320.05 181.183L319.211 181.956C319.427 182.191 319.731 182.324 320.05 182.324C320.368 182.324 320.672 182.191 320.888 181.956L320.05 181.183ZM320.05 150.505C316.639 150.505 314.014 147.899 314.014 144.612H311.733C311.733 149.202 315.423 152.786 320.05 152.786V150.505ZM314.014 144.612C314.014 141.326 316.639 138.72 320.05 138.72V136.439C315.424 136.439 311.733 140.023 311.733 144.612H314.014ZM320.05 138.72C323.46 138.72 326.086 141.326 326.086 144.612H328.367C328.367 140.023 324.676 136.439 320.05 136.439V138.72ZM326.086 144.612C326.086 147.899 323.46 150.505 320.05 150.505V152.786C324.676 152.786 328.367 149.202 328.367 144.612H326.086ZM320.05 123.78C308.39 123.78 298.816 133.13 298.816 144.612H301.096C301.096 134.433 309.606 126.061 320.05 126.061V123.78ZM298.816 144.612C298.816 148.54 300.145 152.845 302.059 157.031C303.979 161.233 306.53 165.403 309.064 169.083C311.6 172.766 314.133 175.981 316.032 178.273C316.982 179.42 317.774 180.338 318.33 180.971C318.608 181.287 318.827 181.532 318.977 181.698C319.052 181.782 319.11 181.845 319.149 181.889C319.169 181.91 319.184 181.927 319.195 181.938C319.2 181.944 319.204 181.948 319.207 181.951C319.208 181.953 319.209 181.954 319.21 181.955C319.21 181.955 319.211 181.956 319.211 181.956C319.211 181.956 319.211 181.956 320.05 181.183C320.888 180.411 320.888 180.411 320.888 180.411C320.888 180.41 320.888 180.41 320.888 180.41C320.888 180.41 320.887 180.409 320.886 180.408C320.884 180.405 320.88 180.402 320.876 180.397C320.867 180.387 320.853 180.372 320.835 180.352C320.798 180.312 320.743 180.251 320.671 180.171C320.527 180.011 320.314 179.774 320.043 179.465C319.5 178.847 318.722 177.946 317.788 176.819C315.92 174.562 313.43 171.403 310.942 167.789C308.452 164.173 305.98 160.123 304.133 156.083C302.279 152.028 301.096 148.069 301.096 144.612H298.816ZM320.05 181.183C320.888 181.956 320.889 181.956 320.889 181.956C320.889 181.956 320.889 181.955 320.89 181.955C320.891 181.954 320.892 181.953 320.893 181.951C320.896 181.948 320.9 181.944 320.905 181.938C320.915 181.927 320.93 181.91 320.95 181.889C320.99 181.845 321.048 181.782 321.123 181.698C321.273 181.532 321.492 181.287 321.77 180.971C322.326 180.338 323.118 179.42 324.068 178.273C325.967 175.981 328.5 172.766 331.036 169.083C333.57 165.403 336.12 161.233 338.041 157.031C339.955 152.845 341.284 148.54 341.284 144.612H339.003C339.003 148.069 337.821 152.028 335.967 156.083C334.12 160.123 331.647 164.173 329.157 167.789C326.67 171.403 324.18 174.562 322.311 176.819C321.377 177.946 320.6 178.847 320.057 179.465C319.785 179.774 319.573 180.011 319.428 180.171C319.356 180.251 319.301 180.312 319.265 180.352C319.246 180.372 319.233 180.387 319.224 180.397C319.219 180.402 319.216 180.405 319.214 180.408C319.213 180.409 319.212 180.41 319.212 180.41C319.211 180.41 319.211 180.41 319.211 180.411C319.211 180.411 319.211 180.411 320.05 181.183ZM341.284 144.612C341.284 133.13 331.71 123.78 320.05 123.78V126.061C330.494 126.061 339.003 134.433 339.003 144.612H341.284Z" fill="black"/>
<path d="M130.781 153.215C130.618 153.525 130.347 153.765 130.019 153.889C129.825 153.967 129.618 154.007 129.408 154.008C129.269 154.007 129.129 153.99 128.994 153.955C128.653 153.87 128.358 153.658 128.169 153.362C128.004 153.101 127.921 152.797 127.93 152.488C127.931 152.382 127.938 152.276 127.953 152.17C127.981 151.927 128.018 151.804 128.062 151.804C128.106 151.804 128.119 151.931 128.108 152.18C128.088 152.412 128.143 152.645 128.267 152.842C128.331 152.938 128.418 153.016 128.52 153.07C128.622 153.123 128.736 153.15 128.851 153.148C129.029 153.155 129.205 153.118 129.365 153.04C129.565 152.946 129.666 152.818 129.666 152.656V150.842H130.794V152.384H131.297V150.842H132.386V152.384H132.898L132.906 150.842H133.978V153.212L130.781 153.215Z" fill="black"/>
<path d="M134.566 150.842H135.664V153.422C135.666 153.51 135.649 153.598 135.614 153.679C135.58 153.761 135.528 153.834 135.464 153.894C135.337 154.018 135.171 154.093 134.995 154.107C134.694 154.135 134.391 154.135 134.09 154.107C134.022 154.103 133.956 154.087 133.894 154.059C133.852 154.039 133.831 154.019 133.831 154C133.831 153.96 133.917 153.935 134.087 153.926C134.172 153.921 134.253 153.896 134.325 153.851C134.397 153.807 134.456 153.746 134.498 153.672C134.542 153.608 134.565 153.532 134.566 153.455V150.842Z" fill="black"/>
<path d="M137.021 149.941V152.387H137.506V153.215H135.923V149.941H137.021Z" fill="black"/>
<path d="M141.828 153.215H137.141V152.387H140.682V151.996H137.802C137.693 152.008 137.593 152.062 137.524 152.146V151.344C137.526 151.216 137.578 151.093 137.669 151.001C137.709 150.953 137.76 150.913 137.817 150.886C137.874 150.858 137.937 150.844 138 150.842H141.828V153.215Z" fill="black"/>
<path d="M146.405 153.215C146.399 153.248 146.39 153.281 146.379 153.313C146.299 153.492 146.182 153.653 146.036 153.784C145.89 153.915 145.718 154.015 145.531 154.076C145.348 154.139 145.156 154.171 144.963 154.172C144.766 154.171 144.571 154.137 144.385 154.071C144.206 154.012 144.04 153.916 143.9 153.789C143.76 153.662 143.649 153.506 143.573 153.333C143.502 153.173 143.466 152.999 143.468 152.824C143.474 152.556 143.535 152.291 143.645 152.046C143.712 151.888 143.764 151.808 143.799 151.808C143.813 151.808 143.821 151.827 143.821 151.865C143.814 151.932 143.799 151.998 143.775 152.061C143.741 152.161 143.723 152.267 143.722 152.373C143.72 152.491 143.751 152.608 143.81 152.71C143.858 152.794 143.922 152.867 144 152.925C144.077 152.982 144.166 153.023 144.26 153.044C144.334 153.063 144.41 153.073 144.486 153.073C144.615 153.071 144.741 153.044 144.859 152.993C145.059 152.909 145.222 152.755 145.318 152.56V149.939H146.438V152.386H146.794V153.213L146.405 153.215Z" fill="black"/>
<path d="M149.677 152.387V153.215H146.399V152.387H146.658V151.494C146.656 151.324 146.719 151.161 146.833 151.035C146.885 150.973 146.951 150.923 147.025 150.888C147.099 150.854 147.18 150.836 147.262 150.837H149.406V152.387H149.677ZM148.485 149.941C148.492 150.003 148.485 150.066 148.467 150.125C148.448 150.185 148.417 150.24 148.377 150.287C148.333 150.332 148.281 150.368 148.224 150.393C148.166 150.417 148.104 150.43 148.041 150.431C147.979 150.431 147.917 150.42 147.859 150.396C147.801 150.372 147.748 150.337 147.704 150.293C147.618 150.195 147.57 150.071 147.567 149.941H148.485ZM148.247 152.387V151.97H147.804V152.387H148.247Z" fill="black"/>
<path d="M155.998 153.215H149.442V152.382H154.892V151.937H150.841C150.715 151.942 150.59 151.918 150.475 151.868C150.359 151.817 150.257 151.741 150.176 151.645C150.013 151.45 149.932 151.199 149.949 150.945C149.949 150.812 149.974 150.681 150.025 150.558C150.075 150.436 150.149 150.324 150.242 150.23C150.338 150.139 150.451 150.068 150.574 150.021C150.698 149.974 150.83 149.952 150.962 149.958C151.121 149.958 151.2 149.965 151.2 149.98C151.2 149.994 151.172 150.023 151.117 150.066C151.064 150.105 151.018 150.153 150.981 150.207C150.931 150.284 150.903 150.374 150.902 150.466C150.902 150.529 150.918 150.591 150.948 150.646C150.978 150.711 151.028 150.764 151.089 150.801C151.15 150.837 151.221 150.854 151.292 150.85H154.983C155.162 150.851 155.337 150.901 155.488 150.995C155.642 151.085 155.77 151.213 155.862 151.366C155.949 151.502 155.996 151.659 156 151.821L155.998 153.215Z" fill="black"/>
<path d="M132.951 147.072V147.382H132.474C132.459 147.382 132.452 147.372 132.452 147.352V146.95C132.452 146.927 132.443 146.916 132.426 146.916H132.277C132.26 146.916 132.252 146.929 132.252 146.954V147.332C132.252 147.366 132.246 147.383 132.233 147.383H131.283C131.265 147.383 131.247 147.379 131.231 147.372C131.215 147.364 131.2 147.352 131.189 147.338C131.166 147.31 131.153 147.275 131.154 147.239V146.603C131.154 146.587 131.159 146.571 131.168 146.557C131.176 146.543 131.188 146.532 131.203 146.524C131.229 146.505 131.261 146.494 131.293 146.494H131.594C131.617 146.494 131.629 146.494 131.629 146.502C131.63 146.511 131.624 146.513 131.609 146.518C131.601 146.522 131.595 146.529 131.59 146.536C131.586 146.544 131.584 146.552 131.584 146.561V147.03C131.584 147.058 131.594 147.072 131.612 147.072H131.816C131.834 147.072 131.844 147.062 131.844 147.042V146.625C131.844 146.537 131.905 146.492 132.029 146.492H132.713H132.726C132.751 146.494 132.776 146.502 132.797 146.516C132.818 146.53 132.835 146.549 132.846 146.571C132.861 146.593 132.87 146.619 132.871 146.645V147.077L132.951 147.072ZM131.674 147.637H131.33C131.331 147.588 131.349 147.541 131.382 147.505C131.398 147.487 131.418 147.473 131.441 147.464C131.463 147.454 131.487 147.45 131.512 147.452C131.535 147.451 131.558 147.456 131.579 147.466C131.6 147.476 131.618 147.49 131.633 147.507C131.648 147.525 131.659 147.546 131.666 147.568C131.673 147.591 131.675 147.614 131.673 147.637H131.674ZM132.08 147.637H131.736C131.737 147.589 131.755 147.542 131.787 147.505C131.804 147.487 131.824 147.473 131.846 147.464C131.869 147.454 131.893 147.45 131.917 147.452C131.94 147.451 131.963 147.456 131.984 147.466C132.005 147.475 132.024 147.49 132.039 147.507C132.054 147.525 132.065 147.547 132.072 147.569C132.078 147.592 132.08 147.616 132.077 147.639L132.08 147.637Z" fill="black"/>
<path d="M134.834 147.383H132.876V147.072H133.06V146.494H133.483V147.072H133.672V146.494H134.081V147.072H134.274V146.494H134.672V147.072H134.83L134.834 147.383Z" fill="black"/>
<path d="M137.174 147.383H134.712V147.071H136.756V146.904H135.241C135.194 146.906 135.147 146.897 135.104 146.878C135.06 146.859 135.022 146.83 134.992 146.794C134.931 146.721 134.9 146.626 134.907 146.531C134.907 146.481 134.916 146.432 134.935 146.386C134.954 146.34 134.982 146.299 135.017 146.264C135.053 146.229 135.095 146.202 135.141 146.185C135.187 146.167 135.237 146.159 135.286 146.161C135.347 146.161 135.377 146.161 135.377 146.17C135.377 146.179 135.367 146.186 135.346 146.202C135.325 146.216 135.308 146.234 135.293 146.255C135.274 146.283 135.263 146.317 135.262 146.352C135.262 146.375 135.268 146.399 135.279 146.419C135.29 146.444 135.308 146.465 135.332 146.479C135.355 146.493 135.382 146.5 135.409 146.499H136.793C136.86 146.499 136.925 146.518 136.982 146.553C137.04 146.587 137.088 146.635 137.123 146.692C137.155 146.744 137.173 146.803 137.174 146.863V147.383Z" fill="black"/>
<path d="M137.702 146.156V147.074H137.884V147.384H137.29V146.156H137.702Z" fill="black"/>
<path d="M138.599 147.381H137.796V147.072H138.193V146.491H138.597L138.599 147.381ZM138.213 146.156C138.215 146.179 138.213 146.203 138.206 146.225C138.199 146.247 138.187 146.268 138.172 146.286C138.156 146.303 138.138 146.317 138.117 146.326C138.095 146.335 138.072 146.34 138.049 146.34C138.025 146.341 138.001 146.338 137.979 146.329C137.956 146.32 137.936 146.306 137.92 146.288C137.888 146.251 137.87 146.205 137.869 146.156H138.213ZM138.591 146.156C138.593 146.179 138.591 146.202 138.583 146.224C138.576 146.246 138.565 146.267 138.55 146.284C138.535 146.302 138.516 146.316 138.495 146.325C138.474 146.335 138.451 146.34 138.428 146.34C138.404 146.342 138.38 146.338 138.357 146.329C138.335 146.32 138.314 146.307 138.298 146.289C138.266 146.252 138.248 146.205 138.246 146.156H138.591Z" fill="black"/>
<path d="M145.772 125.908V129.812H152.72C152.72 129.812 152.834 126.715 150.019 125.908H145.772Z" fill="#FDCD03"/>
<path d="M152.721 134.062V143.995C152.721 143.995 152.547 146.866 149.848 147.382H138.709C138.709 147.382 144.165 146.35 145.427 141.066C145.427 141.066 146.002 136.645 145.772 134.062H152.721Z" fill="#FDCD03"/>
<path d="M141.408 129.812V125.908H134.231C131.133 126.712 131.073 129.812 131.073 129.812H132.91V132.052H131.073V143.421H136.643C141.236 142.904 141.408 139.172 141.408 139.172V131.994H139.513V129.812H141.408ZM139.456 134.062H137.303V131.966H135.246V134.062H133.092V131.908H135.15V129.812H137.303V131.908H139.456V134.062Z" fill="#FDCD03"/>
<path fill-rule="evenodd" clip-rule="evenodd" d="M263.7 160.826C263.204 155.855 254.936 157.768 250.551 158.152C247.557 151.532 244.782 146.681 242.235 143.133C234.578 132.43 229.065 133.511 226.347 133.511C222.721 133.511 194.707 133.319 183.267 133.511C171.829 133.696 164.399 154.326 161.54 158.152C161.54 158.152 149.122 154.81 148.575 159.297C148.165 163.5 150.676 164.261 156.204 165.405C148.199 197.884 157.538 199.605 157.538 199.605V209.725C157.538 213.167 161.54 213.252 161.54 213.252H170.119C172.595 213.252 172.595 208.963 172.595 208.963V200.558H239.496V209.725C239.496 214.119 243.881 213.167 243.881 213.167H250.935C254.554 213.167 254.936 209.347 254.936 209.347V199.605C263.324 191.96 257.222 167.894 256.271 164.837C258.748 164.645 263.991 163.699 263.7 160.826Z" fill="#F5C009"/>
<path opacity="0.1" fill-rule="evenodd" clip-rule="evenodd" d="M256.279 165.221C257.229 168.255 263.324 192.129 254.946 199.713V209.379C254.946 209.379 254.564 213.167 250.948 213.167H243.904C243.904 213.167 239.523 214.112 239.523 209.753V200.659H185.025L192.772 192.948L192.885 192.835L200.299 185.455L242.259 143.69C244.804 147.21 247.575 152.022 250.566 158.59C254.946 158.209 263.204 156.311 263.7 161.242C263.991 164.093 258.753 165.031 256.279 165.221Z" fill="#242E42"/>
<path fill-rule="evenodd" clip-rule="evenodd" d="M237.577 163.005H177.379C173.777 163.005 165.962 164.276 170.373 156.063C171.233 154.49 172.354 152.014 172.354 152.014C174.433 147.577 176.808 141.409 183.814 141.409H224.905C227.068 141.402 229.852 141.409 232.84 143.822C234.814 145.408 236.872 148.043 238.902 152.401C241.559 157.606 244.963 163.005 237.577 163.005Z" fill="#FDFFFE"/>
<path fill-rule="evenodd" clip-rule="evenodd" d="M221.517 141.409L199.85 163.076H185.025L206.693 141.409H221.517Z" fill="#EDEDED"/>
<path fill-rule="evenodd" clip-rule="evenodd" d="M234.062 143.83L214.897 163.076H204.411L225.986 141.409C228.188 141.402 231.021 141.409 234.062 143.83Z" fill="#EDEDED"/>
<path fill-rule="evenodd" clip-rule="evenodd" d="M172.034 192.726C169.273 192.726 163.655 191.36 160.797 189.798C157.941 188.236 158.893 182.379 159.179 181.648C159.464 180.916 161.178 179.647 162.702 180.427C164.226 181.209 167.68 182.05 171.369 182.868C175.704 183.829 176.51 186.186 176.986 188.811C177.463 191.436 174.797 192.726 172.034 192.726Z" fill="#FDFFFE"/>
<path fill-rule="evenodd" clip-rule="evenodd" d="M222.43 193.482C215.909 194.092 198.647 193.888 192.893 193.482C187.138 193.075 181.193 194.092 183.111 184.744C192.126 185.759 221.663 185.556 228.952 184.744C230.486 189.011 228.952 192.872 222.43 193.482Z" fill="#FDFFFE"/>
<path fill-rule="evenodd" clip-rule="evenodd" d="M251.447 189.798C248.59 191.36 242.971 192.726 240.209 192.726C237.448 192.726 234.781 191.436 235.258 188.812C235.734 186.187 236.541 183.829 240.876 182.868C244.565 182.05 248.018 181.209 249.541 180.427C251.066 179.647 252.78 180.916 253.065 181.648C253.351 182.379 254.303 188.236 251.447 189.798Z" fill="#FDFFFE"/>
</svg>
