<svg width="318" height="318" viewBox="0 0 318 318" fill="none" xmlns="http://www.w3.org/2000/svg">
<mask id="mask0_5_2028" style="mask-type:luminance" maskUnits="userSpaceOnUse" x="0" y="0" width="318" height="318">
<path fill-rule="evenodd" clip-rule="evenodd" d="M0 0.0765381H317.03V317.106H0V0.0765381Z" fill="white"/>
</mask>
<g mask="url(#mask0_5_2028)">
<path fill-rule="evenodd" clip-rule="evenodd" d="M158.515 0.0765381C70.9697 0.0765381 0 71.0463 0 158.591C0 246.136 70.9697 317.106 158.515 317.106C246.06 317.106 317.03 246.136 317.03 158.591C317.03 71.0463 246.06 0.0765381 158.515 0.0765381Z" fill="#EFF3F9"/>
</g>
<path fill-rule="evenodd" clip-rule="evenodd" d="M120.795 263.917C109.409 263.917 100.179 254.687 100.179 243.301C100.179 231.915 109.409 222.685 120.795 222.685C132.181 222.685 141.411 231.915 141.411 243.301C141.411 254.687 132.181 263.917 120.795 263.917Z" fill="white"/>
<path fill-rule="evenodd" clip-rule="evenodd" d="M79.1047 221.248C75.7814 221.248 73.0867 218.554 73.0867 215.23C73.0867 211.907 75.7814 209.212 79.1047 209.212C82.428 209.212 85.1228 211.907 85.1228 215.23C85.1228 218.554 82.428 221.248 79.1047 221.248Z" fill="white"/>
<path fill-rule="evenodd" clip-rule="evenodd" d="M177.796 251.321C175.582 251.321 173.787 249.525 173.787 247.311C173.787 245.096 175.582 243.301 177.796 243.301C180.011 243.301 181.806 245.096 181.806 247.311C181.806 249.525 180.011 251.321 177.796 251.321Z" fill="white"/>
<path fill-rule="evenodd" clip-rule="evenodd" d="M233.288 61.9915C231.074 61.9915 229.279 60.1965 229.279 57.9819C229.279 55.7673 231.074 53.9723 233.288 53.9723C235.503 53.9723 237.298 55.7673 237.298 57.9819C237.298 60.1965 235.503 61.9915 233.288 61.9915Z" fill="white"/>
<path fill-rule="evenodd" clip-rule="evenodd" d="M215.332 98.4227H224.31V97.6411C224.31 95.0032 222.172 92.8646 219.533 92.8646H193.763C191.125 92.8646 188.986 95.0032 188.986 97.6411V173.816H209.014V104.74C209.014 101.251 211.842 98.4227 215.332 98.4227Z" fill="#E0E8F6"/>
<mask id="mask1_5_2028" style="mask-type:luminance" maskUnits="userSpaceOnUse" x="0" y="0" width="318" height="318">
<path fill-rule="evenodd" clip-rule="evenodd" d="M0 317.106H317.03V0.076416H0V317.106Z" fill="white"/>
</mask>
<g mask="url(#mask1_5_2028)">
<path fill-rule="evenodd" clip-rule="evenodd" d="M161.873 173.816H183.776V107.913H161.873V173.816Z" fill="#D0DBF0"/>
<path fill-rule="evenodd" clip-rule="evenodd" d="M216.268 89.2416H197.029C196.293 89.2416 195.697 88.6461 195.697 87.9103V80.1037C195.697 79.3688 196.293 78.7723 197.029 78.7723H216.268C217.003 78.7723 217.599 79.3688 217.599 80.1037V87.9103C217.599 88.6461 217.003 89.2416 216.268 89.2416Z" fill="#E0E8F6"/>
<path fill-rule="evenodd" clip-rule="evenodd" d="M157.128 173.816H112.539V61.6186C112.539 59.1566 114.852 57.3497 117.241 57.9452L154.259 67.1794C155.945 67.6 157.128 69.1146 157.128 70.8527V173.816Z" fill="#D0DBF0"/>
<path fill-rule="evenodd" clip-rule="evenodd" d="M92.772 173.816V135.035C92.772 131.557 95.5913 128.738 99.0695 128.738H106.212V173.816H92.772Z" fill="#E0E8F6"/>
<path fill-rule="evenodd" clip-rule="evenodd" d="M205.066 166.435C204.143 166.435 203.394 165.686 203.394 164.762V105.895C203.394 104.97 204.143 104.223 205.066 104.223C205.99 104.223 206.738 104.97 206.738 105.895V164.762C206.738 165.686 205.99 166.435 205.066 166.435Z" fill="#C0CBE2"/>
<path fill-rule="evenodd" clip-rule="evenodd" d="M195.787 166.435C194.864 166.435 194.115 165.686 194.115 164.762V105.895C194.115 104.97 194.864 104.223 195.787 104.223C196.711 104.223 197.46 104.97 197.46 105.895V164.762C197.46 165.686 196.711 166.435 195.787 166.435Z" fill="#C0CBE2"/>
<path fill-rule="evenodd" clip-rule="evenodd" d="M148.672 84.0071H122.273C120.828 84.0071 119.656 82.8352 119.656 81.3902C119.656 79.9444 120.828 78.7725 122.273 78.7725H148.672C150.117 78.7725 151.289 79.9444 151.289 81.3902C151.289 82.8352 150.117 84.0071 148.672 84.0071Z" fill="#C1CAE7"/>
<path fill-rule="evenodd" clip-rule="evenodd" d="M148.672 95.4814H122.273C120.828 95.4814 119.656 94.3094 119.656 92.8645C119.656 91.4186 120.828 90.2467 122.273 90.2467H148.672C150.117 90.2467 151.289 91.4186 151.289 92.8645C151.289 94.3094 150.117 95.4814 148.672 95.4814Z" fill="#C1CAE7"/>
<path fill-rule="evenodd" clip-rule="evenodd" d="M148.672 106.956H122.273C120.828 106.956 119.656 105.784 119.656 104.339C119.656 102.894 120.828 101.722 122.273 101.722H148.672C150.117 101.722 151.289 102.894 151.289 104.339C151.289 105.784 150.117 106.956 148.672 106.956Z" fill="#C1CAE7"/>
<path fill-rule="evenodd" clip-rule="evenodd" d="M148.672 118.431H122.273C120.828 118.431 119.656 117.259 119.656 115.814C119.656 114.368 120.828 113.196 122.273 113.196H148.672C150.117 113.196 151.289 114.368 151.289 115.814C151.289 117.259 150.117 118.431 148.672 118.431Z" fill="#C1CAE7"/>
<path fill-rule="evenodd" clip-rule="evenodd" d="M148.672 129.905H122.273C120.828 129.905 119.656 128.733 119.656 127.288C119.656 125.842 120.828 124.671 122.273 124.671H148.672C150.117 124.671 151.289 125.842 151.289 127.288C151.289 128.733 150.117 129.905 148.672 129.905Z" fill="#C1CAE7"/>
<path fill-rule="evenodd" clip-rule="evenodd" d="M148.672 141.38H122.273C120.828 141.38 119.656 140.208 119.656 138.762C119.656 137.317 120.828 136.145 122.273 136.145H148.672C150.117 136.145 151.289 137.317 151.289 138.762C151.289 140.208 150.117 141.38 148.672 141.38Z" fill="#C1CAE7"/>
<path fill-rule="evenodd" clip-rule="evenodd" d="M148.672 152.854H122.273C120.828 152.854 119.656 151.682 119.656 150.238C119.656 148.792 120.828 147.62 122.273 147.62H148.672C150.117 147.62 151.289 148.792 151.289 150.238C151.289 151.682 150.117 152.854 148.672 152.854Z" fill="#C1CAE7"/>
<path fill-rule="evenodd" clip-rule="evenodd" d="M148.672 164.329H122.273C120.828 164.329 119.656 163.157 119.656 161.712C119.656 160.266 120.828 159.095 122.273 159.095H148.672C150.117 159.095 151.289 160.266 151.289 161.712C151.289 163.157 150.117 164.329 148.672 164.329Z" fill="#C1CAE7"/>
<path fill-rule="evenodd" clip-rule="evenodd" d="M82.4871 173.816H47.1631V104.133C47.1631 100.979 49.7195 98.4224 52.8733 98.4224H76.7769C79.9307 98.4224 82.4871 100.979 82.4871 104.133V173.816Z" fill="#E0E8F6"/>
<path fill-rule="evenodd" clip-rule="evenodd" d="M75.7983 113.447H53.8509C52.6221 113.447 51.6252 112.451 51.6252 111.221V111.137C51.6252 109.907 52.6221 108.91 53.8509 108.91H75.7983C77.0279 108.91 78.0239 109.907 78.0239 111.137V111.221C78.0239 112.451 77.0279 113.447 75.7983 113.447Z" fill="#C1CAE7"/>
<path fill-rule="evenodd" clip-rule="evenodd" d="M75.7983 123.39H53.8509C52.6221 123.39 51.6252 122.394 51.6252 121.164V121.08C51.6252 119.851 52.6221 118.854 53.8509 118.854H75.7983C77.0279 118.854 78.0239 119.851 78.0239 121.08V121.164C78.0239 122.394 77.0279 123.39 75.7983 123.39Z" fill="#C1CAE7"/>
<path fill-rule="evenodd" clip-rule="evenodd" d="M75.7983 133.334H53.8509C52.6221 133.334 51.6252 132.338 51.6252 131.108V131.024C51.6252 129.794 52.6221 128.797 53.8509 128.797H75.7983C77.0279 128.797 78.0239 129.794 78.0239 131.024V131.108C78.0239 132.338 77.0279 133.334 75.7983 133.334Z" fill="#C1CAE7"/>
<path fill-rule="evenodd" clip-rule="evenodd" d="M75.7983 143.277H53.8509C52.6221 143.277 51.6252 142.281 51.6252 141.051V140.967C51.6252 139.737 52.6221 138.74 53.8509 138.74H75.7983C77.0279 138.74 78.0239 139.737 78.0239 140.967V141.051C78.0239 142.281 77.0279 143.277 75.7983 143.277Z" fill="#C1CAE7"/>
<path fill-rule="evenodd" clip-rule="evenodd" d="M75.7983 153.22H53.8509C52.6221 153.22 51.6252 152.224 51.6252 150.995V150.91C51.6252 149.681 52.6221 148.684 53.8509 148.684H75.7983C77.0279 148.684 78.0239 149.681 78.0239 150.91V150.995C78.0239 152.224 77.0279 153.22 75.7983 153.22Z" fill="#C1CAE7"/>
<path fill-rule="evenodd" clip-rule="evenodd" d="M75.7983 163.163H53.8509C52.6221 163.163 51.6252 162.167 51.6252 160.938V160.853C51.6252 159.625 52.6221 158.628 53.8509 158.628H75.7983C77.0279 158.628 78.0239 159.625 78.0239 160.853V160.938C78.0239 162.167 77.0279 163.163 75.7983 163.163Z" fill="#C1CAE7"/>
<path fill-rule="evenodd" clip-rule="evenodd" d="M254.388 176.979H211.15V107.903C211.15 104.414 213.977 101.586 217.466 101.586H248.07C251.559 101.586 254.388 104.414 254.388 107.903V176.979Z" fill="#E0E8F6"/>
<path fill-rule="evenodd" clip-rule="evenodd" d="M246.657 116.61H218.88C217.627 116.61 216.612 115.595 216.612 114.341C216.612 113.09 217.627 112.074 218.88 112.074H246.657C247.91 112.074 248.926 113.09 248.926 114.341C248.926 115.595 247.91 116.61 246.657 116.61Z" fill="#C1CAE7"/>
<path fill-rule="evenodd" clip-rule="evenodd" d="M246.657 126.554H218.88C217.627 126.554 216.612 125.538 216.612 124.285C216.612 123.032 217.627 122.017 218.88 122.017H246.657C247.91 122.017 248.926 123.032 248.926 124.285C248.926 125.538 247.91 126.554 246.657 126.554Z" fill="#C1CAE7"/>
<path fill-rule="evenodd" clip-rule="evenodd" d="M246.657 136.497H218.88C217.627 136.497 216.612 135.482 216.612 134.228C216.612 132.976 217.627 131.961 218.88 131.961H246.657C247.91 131.961 248.926 132.976 248.926 134.228C248.926 135.482 247.91 136.497 246.657 136.497Z" fill="#C1CAE7"/>
<path fill-rule="evenodd" clip-rule="evenodd" d="M103.516 101.721C100.055 101.721 97.2494 98.9157 97.2494 95.4549V83.9658H74.0513V94.4461H80.1216C83.7399 94.4461 86.6729 97.3791 86.6729 100.997V173.816H90.1318V132.66C90.1318 128.819 93.2453 125.707 97.0854 125.707H106.212V101.721H103.516Z" fill="#D0DBF0"/>
<path fill-rule="evenodd" clip-rule="evenodd" d="M212.923 71.9863H200.372C199.638 71.9863 199.041 71.3907 199.041 70.655V64.4738C199.041 63.738 199.638 63.1425 200.372 63.1425H212.923C213.658 63.1425 214.254 63.738 214.254 64.4738V70.655C214.254 71.3907 213.658 71.9863 212.923 71.9863Z" fill="#E0E8F6"/>
<path fill-rule="evenodd" clip-rule="evenodd" d="M209.014 60.6511H204.282V48.352C204.282 47.8508 204.688 47.444 205.189 47.444H208.107C208.608 47.444 209.014 47.8508 209.014 48.352V60.6511Z" fill="#E0E8F6"/>
<path fill-rule="evenodd" clip-rule="evenodd" d="M220.751 185.414H81.5827C79.6173 185.414 78.0239 183.822 78.0239 181.855C78.0239 179.891 79.6173 178.297 81.5827 178.297H220.751C222.717 178.297 224.31 179.891 224.31 181.855C224.31 183.822 222.717 185.414 220.751 185.414Z" fill="#7E89A0"/>
<path fill-rule="evenodd" clip-rule="evenodd" d="M305.459 191.741C305.459 182.29 297.797 174.626 288.345 174.626H275.309H266.488H42.033C39.3336 174.626 37.1456 172.439 37.1456 169.74C37.1456 167.04 39.3336 164.852 42.033 164.852H43.4724V157.513H34.2254C24.7741 157.513 17.1113 165.175 17.1113 174.626C17.1113 184.079 24.7741 191.741 34.2254 191.741H271.231H283.457C286.158 191.741 288.345 193.929 288.345 196.628C288.345 199.327 286.158 201.515 283.457 201.515H274.308H250.25C248.222 201.515 246.579 203.159 246.579 205.186C246.579 207.212 248.222 208.855 250.25 208.855H288.547V208.845C297.905 208.735 305.459 201.125 305.459 191.741Z" fill="#919DB6"/>
<path fill-rule="evenodd" clip-rule="evenodd" d="M232.413 201.515H208.736C206.709 201.515 205.066 203.159 205.066 205.186C205.066 207.213 206.709 208.855 208.736 208.855H232.413C234.44 208.855 236.083 207.213 236.083 205.186C236.083 203.159 234.44 201.515 232.413 201.515Z" fill="#919DB6"/>
<path fill-rule="evenodd" clip-rule="evenodd" d="M216.023 129.8V135.038H220.858V132.218C220.858 130.215 219.234 128.591 217.232 128.591C216.564 128.591 216.023 129.132 216.023 129.8Z" fill="#E9E3D5"/>
<path fill-rule="evenodd" clip-rule="evenodd" d="M251.548 167.584C250.971 167.014 250.675 166.217 250.675 165.407V157.603C250.675 154.465 249.658 151.411 247.774 148.901L239.071 137.295C237.244 134.86 234.378 133.427 231.334 133.427H207.878C204.438 133.427 201.257 135.253 199.524 138.224L191.041 152.768L180.882 153.986C180.571 154.023 180.263 154.075 179.96 154.141L172.345 163.508V172.109C172.345 174.78 174.509 176.944 177.18 176.944H247.613C250.283 176.944 252.447 174.78 252.447 172.109V169.737C252.447 168.928 252.124 168.152 251.548 167.584Z" fill="#FFB545"/>
<path fill-rule="evenodd" clip-rule="evenodd" d="M251.551 167.585C250.972 167.016 250.675 166.218 250.675 165.407V162.439V157.603C250.675 154.59 249.718 151.492 247.774 148.901L239.071 137.295C238.074 135.967 236.767 134.94 235.292 134.276C233.948 135.957 233.851 138.395 235.202 140.196L240.823 147.69L235.854 152.768H240.974C243.629 152.768 245.825 154.897 245.84 157.552V157.603V165.407V165.439C245.844 166.318 244.85 166.844 244.148 166.315C241.925 164.641 239.161 163.647 236.17 163.647C230.543 163.647 225.724 167.161 223.785 172.109H220.859V138.262H216.024V172.109H196.717C194.848 167.844 190.589 164.856 185.641 164.856C180.696 164.856 176.439 167.845 174.571 172.109H172.345C172.345 174.78 174.509 176.944 177.18 176.944H247.613C250.283 176.944 252.448 174.78 252.448 172.109V169.828C252.448 168.994 252.145 168.172 251.551 167.585Z" fill="#FF7E40"/>
<path fill-rule="evenodd" clip-rule="evenodd" d="M206.273 158.813H211.107C211.775 158.813 212.316 158.271 212.316 157.604C212.316 156.936 211.775 156.395 211.107 156.395H206.273C205.605 156.395 205.064 156.936 205.064 157.604C205.064 158.271 205.605 158.813 206.273 158.813Z" fill="#35404A"/>
<path fill-rule="evenodd" clip-rule="evenodd" d="M225.613 158.813H230.448C231.116 158.813 231.657 158.271 231.657 157.604C231.657 156.936 231.116 156.395 230.448 156.395H225.613C224.945 156.395 224.404 156.936 224.404 157.604C224.404 158.271 224.945 158.813 225.613 158.813Z" fill="#35404A"/>
<path fill-rule="evenodd" clip-rule="evenodd" d="M203.701 140.661L196.638 152.768H216.023V138.262H207.878C206.164 138.262 204.564 139.181 203.701 140.661Z" fill="#87F8F4"/>
<path fill-rule="evenodd" clip-rule="evenodd" d="M240.279 146.966L235.202 140.196C234.29 138.978 232.856 138.262 231.334 138.262H220.858V152.768H237.377C239.381 152.768 241.004 151.145 241.004 149.142C241.004 148.357 240.75 147.593 240.279 146.966Z" fill="#87F8F4"/>
<path fill-rule="evenodd" clip-rule="evenodd" d="M246.646 157.604C245.311 157.604 244.228 158.686 244.228 160.022C244.228 161.356 245.311 162.439 246.646 162.439H250.675V157.604H246.646Z" fill="#C5324F"/>
<path fill-rule="evenodd" clip-rule="evenodd" d="M173.669 158.625C173.66 158.639 173.653 158.652 173.646 158.666C173.561 158.812 173.48 158.96 173.403 159.112C172.724 160.44 172.345 161.938 172.345 163.508H175.125C177.796 163.508 179.96 161.343 179.96 158.672V154.141C177.338 154.708 175.032 156.313 173.669 158.625Z" fill="#E9E3D5"/>
<path fill-rule="evenodd" clip-rule="evenodd" d="M185.641 185.406C180.975 185.406 177.18 181.61 177.18 176.944C177.18 172.279 180.975 168.483 185.641 168.483C190.308 168.483 194.103 172.279 194.103 176.944C194.103 181.61 190.308 185.406 185.641 185.406Z" fill="#596775"/>
<path fill-rule="evenodd" clip-rule="evenodd" d="M187.372 168.661C186.38 170.493 186.657 172.832 188.206 174.38L183.077 179.509C181.529 177.959 179.19 177.682 177.358 178.674C178.159 182.512 181.569 185.406 185.641 185.406C190.308 185.406 194.104 181.61 194.104 176.944C194.104 172.871 191.209 169.463 187.372 168.661Z" fill="#35404A"/>
<path fill-rule="evenodd" clip-rule="evenodd" d="M189.268 176.944C189.268 178.948 187.645 180.571 185.641 180.571C183.638 180.571 182.016 178.948 182.016 176.944C182.016 174.941 183.638 173.318 185.641 173.318C187.645 173.318 189.268 174.941 189.268 176.944Z" fill="#E9E3D5"/>
<path fill-rule="evenodd" clip-rule="evenodd" d="M236.17 185.406C231.504 185.406 227.709 181.61 227.709 176.944C227.709 172.279 231.504 168.483 236.17 168.483C240.836 168.483 244.631 172.279 244.631 176.944C244.631 181.61 240.836 185.406 236.17 185.406Z" fill="#596775"/>
<path fill-rule="evenodd" clip-rule="evenodd" d="M237.9 168.661C236.908 170.493 237.185 172.832 238.734 174.38L233.604 179.509C232.057 177.959 229.719 177.682 227.886 178.674C228.687 182.512 232.097 185.406 236.169 185.406C240.836 185.406 244.632 181.61 244.632 176.944C244.632 172.871 241.738 169.463 237.9 168.661Z" fill="#35404A"/>
<path fill-rule="evenodd" clip-rule="evenodd" d="M239.796 176.944C239.796 178.948 238.173 180.571 236.17 180.571C234.167 180.571 232.543 178.948 232.543 176.944C232.543 174.941 234.167 173.318 236.17 173.318C238.173 173.318 239.796 174.941 239.796 176.944Z" fill="#E9E3D5"/>
</g>
<mask id="mask2_5_2028" style="mask-type:luminance" maskUnits="userSpaceOnUse" x="0" y="0" width="318" height="318">
<path fill-rule="evenodd" clip-rule="evenodd" d="M158.515 0.076416C70.9697 0.076416 0 71.0452 0 158.591C0 246.137 70.9697 317.106 158.515 317.106C246.06 317.106 317.03 246.137 317.03 158.591" fill="white"/>
</mask>
<g mask="url(#mask2_5_2028)">
<path fill-rule="evenodd" clip-rule="evenodd" d="M162.209 153.887L149.369 164.666C147.187 166.498 143.933 166.213 142.102 164.031C140.271 161.848 140.554 158.596 142.737 156.764L156.823 144.94C158.317 143.686 160.544 143.88 161.799 145.374L162.843 146.62C164.675 148.802 164.392 152.055 162.209 153.887Z" fill="#DBAA79"/>
</g>
<mask id="mask3_5_2028" style="mask-type:luminance" maskUnits="userSpaceOnUse" x="0" y="0" width="318" height="318">
<path fill-rule="evenodd" clip-rule="evenodd" d="M158.515 0.076416C70.9697 0.076416 0 71.0452 0 158.591C0 246.137 70.9697 317.106 158.515 317.106C246.06 317.106 317.03 246.137 317.03 158.591" fill="white"/>
</mask>
<g mask="url(#mask3_5_2028)">
<path fill-rule="evenodd" clip-rule="evenodd" d="M161.756 151.612L147.206 163.824C145.496 165.26 142.946 165.038 141.511 163.328L141.06 162.789C139.624 161.079 139.847 158.529 141.556 157.094L156.107 144.881C157.816 143.445 160.366 143.668 161.801 145.378L162.254 145.917C163.689 147.627 163.466 150.177 161.756 151.612Z" fill="#EAC897"/>
</g>
<mask id="mask4_5_2028" style="mask-type:luminance" maskUnits="userSpaceOnUse" x="0" y="0" width="318" height="318">
<path fill-rule="evenodd" clip-rule="evenodd" d="M158.515 0.076416C70.9697 0.076416 0 71.0452 0 158.591C0 246.137 70.9697 317.106 158.515 317.106C246.06 317.106 317.03 246.137 317.03 158.591C317.03 71.0452 246.06 0.076416 158.515 0.076416Z" fill="white"/>
</mask>
<g mask="url(#mask4_5_2028)">
<path fill-rule="evenodd" clip-rule="evenodd" d="M110.167 205.176C109.975 205.948 107.851 244.174 108.43 244.367C109.009 244.559 138.547 228.343 138.547 228.343L142.022 208.458L110.167 205.176Z" fill="#DBAA79"/>
</g>
<mask id="mask5_5_2028" style="mask-type:luminance" maskUnits="userSpaceOnUse" x="0" y="0" width="318" height="318">
<path fill-rule="evenodd" clip-rule="evenodd" d="M158.515 0.076416C70.9697 0.076416 0 71.0452 0 158.591C0 246.137 70.9697 317.106 158.515 317.106C246.06 317.106 317.03 246.137 317.03 158.591C317.03 71.0452 246.06 0.076416 158.515 0.076416Z" fill="white"/>
</mask>
<g mask="url(#mask5_5_2028)">
<path fill-rule="evenodd" clip-rule="evenodd" d="M149.938 202.473C148.972 204.789 147.56 227.001 137.196 239.154C125.176 253.248 117.118 252.089 115.379 252.475C114.61 254.015 113.232 256.467 111.787 258.968C109.147 263.539 104.469 266.6 99.2128 267.088C98.5494 267.149 97.8265 267.233 97.0394 267.341C90.7859 268.203 90.2819 271.395 85.8417 273.905C81.4014 276.415 76.3821 279.889 69.4313 276.415C61.4863 272.442 55.1448 279.889 55.1448 279.889L83.332 230.853C83.332 230.853 82.1729 198.225 87.7722 188.765C93.3707 179.306 111.325 161.544 111.325 161.544C111.325 161.544 123.488 171.777 103.41 187.22C103.41 193.399 103.024 198.032 103.024 198.032C103.024 198.032 118.276 202.473 113.642 235.872C123.681 235.872 132.176 233.555 134.879 224.289C137.582 217.725 139.319 214.828 139.319 214.828C137.003 214.828 141.249 163.282 141.249 163.282L149.938 202.473Z" fill="#EAC897"/>
</g>
<mask id="mask6_5_2028" style="mask-type:luminance" maskUnits="userSpaceOnUse" x="0" y="0" width="318" height="318">
<path fill-rule="evenodd" clip-rule="evenodd" d="M158.515 0.076416C70.9697 0.076416 0 71.0452 0 158.591C0 246.137 70.9697 317.106 158.515 317.106C246.06 317.106 317.03 246.137 317.03 158.591" fill="white"/>
</mask>
<g mask="url(#mask6_5_2028)">
<path fill-rule="evenodd" clip-rule="evenodd" d="M142.52 224.323H107.488C102.364 224.323 98.2107 220.17 98.2107 215.045V128.155C98.2107 123.033 102.364 118.878 107.488 118.878H142.52C147.643 118.878 151.797 123.033 151.797 128.155V215.045C151.797 220.17 147.643 224.323 142.52 224.323Z" fill="#535565"/>
</g>
<mask id="mask7_5_2028" style="mask-type:luminance" maskUnits="userSpaceOnUse" x="0" y="0" width="318" height="318">
<path fill-rule="evenodd" clip-rule="evenodd" d="M158.515 0.076416C70.9697 0.076416 0 71.0452 0 158.591C0 246.137 70.9697 317.106 158.515 317.106C246.06 317.106 317.03 246.137 317.03 158.591" fill="white"/>
</mask>
<g mask="url(#mask7_5_2028)">
<path fill-rule="evenodd" clip-rule="evenodd" d="M140.515 221.606H109.493C104.762 221.606 100.927 217.77 100.927 213.041V130.16C100.927 125.431 104.762 121.596 109.493 121.596H140.515C145.246 121.596 149.08 125.431 149.08 130.16V213.041C149.08 217.77 145.246 221.606 140.515 221.606Z" fill="#FFE3E0"/>
</g>
<mask id="mask8_5_2028" style="mask-type:luminance" maskUnits="userSpaceOnUse" x="0" y="0" width="318" height="318">
<path fill-rule="evenodd" clip-rule="evenodd" d="M158.515 0.076416C70.9697 0.076416 0 71.0452 0 158.591C0 246.137 70.9697 317.106 158.515 317.106C246.06 317.106 317.03 246.137 317.03 158.591" fill="white"/>
</mask>
<g mask="url(#mask8_5_2028)">
<path fill-rule="evenodd" clip-rule="evenodd" d="M140.515 221.606H109.493C104.762 221.606 100.927 217.77 100.927 213.041V130.16C100.927 125.431 104.762 121.596 109.493 121.596H140.515C145.246 121.596 149.08 125.431 149.08 130.16V213.041C149.08 217.77 145.246 221.606 140.515 221.606Z" fill="#F5C009"/>
</g>
<mask id="mask9_5_2028" style="mask-type:luminance" maskUnits="userSpaceOnUse" x="0" y="0" width="318" height="318">
<path fill-rule="evenodd" clip-rule="evenodd" d="M158.515 0.076416C70.9697 0.076416 0 71.0452 0 158.591C0 246.137 70.9697 317.106 158.515 317.106C246.06 317.106 317.03 246.137 317.03 158.591" fill="white"/>
</mask>
<g mask="url(#mask9_5_2028)">
<path fill-rule="evenodd" clip-rule="evenodd" d="M138.124 152.437C138.124 159.682 132.249 165.556 125.003 165.556C117.758 165.556 111.884 159.682 111.884 152.437C111.884 145.191 117.758 139.317 125.003 139.317C132.249 139.317 138.124 145.191 138.124 152.437Z" fill="white"/>
</g>
<mask id="mask10_5_2028" style="mask-type:luminance" maskUnits="userSpaceOnUse" x="0" y="0" width="318" height="318">
<path fill-rule="evenodd" clip-rule="evenodd" d="M158.515 0.076416C70.9697 0.076416 0 71.0452 0 158.591C0 246.137 70.9697 317.106 158.515 317.106C246.06 317.106 317.03 246.137 317.03 158.591" fill="white"/>
</mask>
<g mask="url(#mask10_5_2028)">
<path fill-rule="evenodd" clip-rule="evenodd" d="M132.735 125.36H117.273C115.337 125.36 113.768 123.792 113.768 121.856V120.299H136.239V121.856C136.239 123.792 134.671 125.36 132.735 125.36Z" fill="#535565"/>
</g>
<path d="M118.562 160.633C118.469 160.811 118.314 160.948 118.126 161.019C118.015 161.063 117.896 161.086 117.776 161.087C117.696 161.087 117.616 161.077 117.539 161.057C117.344 161.008 117.175 160.887 117.066 160.717C116.972 160.568 116.924 160.394 116.93 160.217C116.93 160.156 116.934 160.095 116.943 160.035C116.959 159.895 116.98 159.825 117.005 159.825C117.03 159.825 117.038 159.898 117.032 160.041C117.02 160.173 117.052 160.307 117.123 160.42C117.159 160.475 117.209 160.519 117.267 160.55C117.326 160.581 117.391 160.596 117.457 160.595C117.559 160.599 117.66 160.578 117.751 160.533C117.866 160.479 117.923 160.406 117.923 160.313V159.275H118.57V160.157H118.857V159.275H119.481V160.157H119.774L119.779 159.275H120.392V160.631L118.562 160.633Z" fill="black"/>
<path d="M120.729 159.275H121.358V160.752C121.358 160.802 121.349 160.852 121.329 160.899C121.309 160.945 121.28 160.987 121.243 161.022C121.17 161.093 121.075 161.136 120.974 161.144C120.802 161.16 120.629 161.16 120.456 161.144C120.418 161.141 120.38 161.132 120.344 161.116C120.32 161.105 120.308 161.093 120.308 161.082C120.308 161.06 120.357 161.045 120.455 161.04C120.503 161.037 120.55 161.023 120.591 160.997C120.632 160.972 120.666 160.937 120.69 160.895C120.715 160.858 120.729 160.815 120.729 160.77V159.275Z" fill="black"/>
<path d="M122.134 158.759V160.159H122.412V160.633H121.506V158.759H122.134Z" fill="black"/>
<path d="M124.886 160.633H122.203V160.159H124.23V159.936H122.582C122.519 159.942 122.462 159.973 122.422 160.021V159.562C122.423 159.488 122.453 159.418 122.505 159.366C122.529 159.338 122.558 159.315 122.59 159.3C122.623 159.284 122.659 159.275 122.695 159.275H124.886V160.633Z" fill="black"/>
<path d="M127.507 160.633C127.503 160.652 127.498 160.671 127.492 160.689C127.446 160.792 127.379 160.884 127.295 160.959C127.212 161.034 127.113 161.091 127.007 161.126C126.902 161.162 126.792 161.181 126.681 161.181C126.568 161.181 126.457 161.161 126.35 161.123C126.248 161.089 126.153 161.034 126.073 160.962C125.993 160.889 125.929 160.8 125.885 160.701C125.845 160.609 125.824 160.51 125.825 160.409C125.829 160.256 125.863 160.104 125.927 159.964C125.965 159.873 125.995 159.828 126.015 159.828C126.023 159.828 126.028 159.839 126.028 159.86C126.023 159.899 126.015 159.936 126.001 159.972C125.982 160.03 125.971 160.09 125.971 160.151C125.97 160.219 125.987 160.286 126.021 160.344C126.049 160.392 126.085 160.434 126.13 160.467C126.174 160.5 126.225 160.523 126.279 160.535C126.321 160.546 126.364 160.552 126.408 160.552C126.482 160.551 126.554 160.535 126.622 160.506C126.736 160.458 126.83 160.37 126.885 160.258V158.758H127.526V160.158H127.73V160.632L127.507 160.633Z" fill="black"/>
<path d="M129.38 160.159V160.633H127.503V160.159H127.651V159.648C127.651 159.551 127.686 159.457 127.751 159.385C127.782 159.349 127.819 159.321 127.862 159.301C127.904 159.281 127.95 159.271 127.997 159.272H129.225V160.159H129.38ZM128.698 158.759C128.701 158.794 128.698 158.83 128.687 158.864C128.676 158.898 128.659 158.93 128.635 158.957C128.611 158.983 128.581 159.003 128.548 159.017C128.515 159.032 128.479 159.039 128.444 159.039C128.408 159.04 128.372 159.033 128.339 159.019C128.306 159.006 128.276 158.985 128.25 158.96C128.201 158.904 128.174 158.833 128.172 158.759H128.698ZM128.561 160.159V159.92H128.308V160.159H128.561Z" fill="black"/>
<path d="M132.999 160.633H129.245V160.157H132.366V159.901H130.047C129.975 159.904 129.903 159.891 129.837 159.862C129.771 159.833 129.712 159.789 129.666 159.735C129.572 159.623 129.526 159.479 129.536 159.333C129.536 159.258 129.55 159.182 129.579 159.112C129.608 159.042 129.65 158.978 129.704 158.924C129.758 158.872 129.823 158.831 129.894 158.804C129.965 158.778 130.04 158.765 130.116 158.768C130.207 158.768 130.252 158.773 130.252 158.781C130.252 158.789 130.236 158.806 130.204 158.83C130.174 158.853 130.148 158.88 130.127 158.911C130.098 158.955 130.082 159.007 130.081 159.059C130.081 159.095 130.09 159.131 130.108 159.162C130.125 159.199 130.153 159.23 130.188 159.251C130.224 159.272 130.264 159.282 130.305 159.279H132.418C132.52 159.28 132.62 159.309 132.707 159.362C132.795 159.414 132.868 159.487 132.921 159.574C132.971 159.652 132.998 159.743 133 159.835L132.999 160.633Z" fill="black"/>
<path d="M119.804 157.116V157.294H119.532C119.523 157.294 119.519 157.288 119.519 157.277V157.047C119.519 157.033 119.514 157.027 119.504 157.027H119.418C119.409 157.027 119.404 157.034 119.404 157.048V157.265C119.404 157.285 119.401 157.295 119.393 157.295H118.85C118.839 157.295 118.829 157.292 118.82 157.288C118.81 157.283 118.802 157.277 118.796 157.269C118.782 157.253 118.775 157.233 118.775 157.212V156.848C118.776 156.839 118.778 156.829 118.783 156.821C118.788 156.813 118.795 156.807 118.804 156.802C118.819 156.792 118.837 156.786 118.855 156.785H119.027C119.041 156.785 119.047 156.785 119.048 156.79C119.048 156.795 119.045 156.796 119.036 156.799C119.032 156.802 119.028 156.805 119.025 156.81C119.023 156.814 119.022 156.819 119.022 156.824V157.092C119.022 157.109 119.027 157.116 119.038 157.116H119.155C119.165 157.116 119.171 157.11 119.171 157.099V156.86C119.171 156.81 119.206 156.784 119.277 156.784H119.668H119.676C119.69 156.785 119.704 156.79 119.716 156.798C119.728 156.806 119.738 156.817 119.744 156.83C119.753 156.842 119.758 156.857 119.759 156.872V157.119L119.804 157.116ZM119.073 157.44H118.876C118.877 157.412 118.887 157.385 118.906 157.364C118.915 157.354 118.927 157.346 118.94 157.34C118.953 157.335 118.967 157.333 118.98 157.334C118.994 157.334 119.007 157.336 119.019 157.342C119.031 157.347 119.041 157.355 119.05 157.365C119.059 157.376 119.065 157.388 119.069 157.4C119.073 157.413 119.074 157.427 119.073 157.44H119.073ZM119.306 157.44H119.109C119.109 157.412 119.12 157.385 119.138 157.364C119.148 157.354 119.159 157.346 119.172 157.341C119.185 157.335 119.199 157.333 119.212 157.334C119.226 157.333 119.239 157.336 119.251 157.342C119.263 157.347 119.274 157.355 119.282 157.365C119.291 157.376 119.297 157.388 119.301 157.401C119.305 157.414 119.306 157.428 119.304 157.441L119.306 157.44Z" fill="#231F20"/>
<path d="M120.882 157.294H119.761V157.116H119.867V156.785H120.109V157.116H120.217V156.785H120.451V157.116H120.562V156.785H120.789V157.116H120.88L120.882 157.294Z" fill="#231F20"/>
<path d="M122.222 157.294H120.812V157.115H121.982V157.02H121.115C121.088 157.021 121.061 157.016 121.036 157.005C121.012 156.994 120.99 156.978 120.972 156.957C120.937 156.915 120.92 156.861 120.924 156.807C120.924 156.778 120.929 156.75 120.94 156.724C120.951 156.697 120.967 156.674 120.987 156.653C121.007 156.634 121.031 156.618 121.058 156.608C121.084 156.598 121.113 156.594 121.141 156.595C121.176 156.595 121.193 156.595 121.193 156.6C121.193 156.605 121.187 156.609 121.175 156.618C121.163 156.626 121.153 156.637 121.145 156.648C121.134 156.665 121.127 156.684 121.127 156.704C121.127 156.717 121.13 156.731 121.137 156.743C121.143 156.757 121.154 156.769 121.167 156.777C121.18 156.785 121.196 156.789 121.211 156.788H122.004C122.042 156.788 122.079 156.799 122.112 156.819C122.145 156.839 122.173 156.866 122.192 156.899C122.211 156.928 122.221 156.962 122.222 156.997V157.294Z" fill="#231F20"/>
<path d="M122.525 156.592V157.117H122.629V157.295H122.289V156.592H122.525Z" fill="#231F20"/>
<path d="M123.038 157.293H122.578V157.116H122.805V156.783H123.037L123.038 157.293ZM122.817 156.592C122.818 156.605 122.817 156.619 122.812 156.632C122.808 156.644 122.802 156.656 122.793 156.666C122.784 156.676 122.773 156.684 122.761 156.689C122.749 156.695 122.736 156.697 122.723 156.697C122.709 156.698 122.695 156.696 122.682 156.691C122.67 156.686 122.658 156.678 122.649 156.668C122.63 156.647 122.62 156.62 122.62 156.592H122.817ZM123.033 156.592C123.034 156.605 123.033 156.618 123.029 156.631C123.025 156.644 123.018 156.655 123.009 156.665C123.001 156.675 122.99 156.683 122.978 156.689C122.966 156.694 122.953 156.697 122.94 156.697C122.926 156.698 122.912 156.696 122.899 156.691C122.886 156.686 122.875 156.678 122.865 156.668C122.847 156.647 122.836 156.62 122.836 156.592H123.033Z" fill="#231F20"/>
<path d="M127.145 145V147.235H131.122C131.122 147.235 131.188 145.462 129.576 145H127.145Z" fill="#FDCD03"/>
<path d="M131.122 149.668V155.355C131.122 155.355 131.023 156.998 129.478 157.294H123.101C123.101 157.294 126.224 156.703 126.947 153.678C126.947 153.678 127.276 151.147 127.145 149.668H131.122Z" fill="#FDCD03"/>
<path d="M124.646 147.235V145H120.537C118.763 145.46 118.729 147.235 118.729 147.235H119.781V148.517H118.729V155.026H121.918C124.547 154.73 124.646 152.594 124.646 152.594V148.484H123.561V147.235H124.646ZM123.528 149.668H122.296V148.468H121.118V149.668H119.885V148.435H121.063V147.235H122.296V148.435H123.528V149.668Z" fill="#FDCD03"/>
<mask id="mask11_5_2028" style="mask-type:luminance" maskUnits="userSpaceOnUse" x="0" y="0" width="318" height="318">
<path fill-rule="evenodd" clip-rule="evenodd" d="M158.515 0.076416C70.9697 0.076416 0 71.0452 0 158.591C0 246.137 70.9697 317.106 158.515 317.106C246.06 317.106 317.03 246.137 317.03 158.591" fill="white"/>
</mask>
<g mask="url(#mask11_5_2028)">
<path fill-rule="evenodd" clip-rule="evenodd" d="M124.055 210.356C116.638 208.692 111.986 201.332 113.648 193.927C113.721 193.602 114.009 193.374 114.338 193.372L117.501 193.353C117.845 193.35 118.141 193.595 118.204 193.933L118.865 197.484C118.924 197.796 118.768 198.108 118.485 198.25L116.41 199.291C116.965 201.793 118.402 204.029 120.386 205.566L122.213 204.135C122.463 203.94 122.812 203.933 123.069 204.119L125.995 206.233C126.275 206.436 126.369 206.808 126.221 207.119L124.852 209.97C124.708 210.268 124.378 210.428 124.055 210.356Z" fill="white"/>
</g>
<mask id="mask12_5_2028" style="mask-type:luminance" maskUnits="userSpaceOnUse" x="0" y="0" width="318" height="318">
<path fill-rule="evenodd" clip-rule="evenodd" d="M158.515 0.076416C70.9697 0.076416 0 71.0452 0 158.591C0 246.137 70.9697 317.106 158.515 317.106C246.06 317.106 317.03 246.137 317.03 158.591" fill="white"/>
</mask>
<g mask="url(#mask12_5_2028)">
<path fill-rule="evenodd" clip-rule="evenodd" d="M126.418 199.219C126.418 199.957 125.82 200.555 125.082 200.555C124.344 200.555 123.746 199.957 123.746 199.219C123.746 198.481 124.344 197.882 125.082 197.882C125.82 197.882 126.418 198.481 126.418 199.219Z" fill="white"/>
</g>
<mask id="mask13_5_2028" style="mask-type:luminance" maskUnits="userSpaceOnUse" x="0" y="0" width="318" height="318">
<path fill-rule="evenodd" clip-rule="evenodd" d="M158.515 0.076416C70.9697 0.076416 0 71.0452 0 158.591C0 246.137 70.9697 317.106 158.515 317.106C246.06 317.106 317.03 246.137 317.03 158.591" fill="white"/>
</mask>
<g mask="url(#mask13_5_2028)">
<path fill-rule="evenodd" clip-rule="evenodd" d="M130.713 199.219C130.713 199.957 130.115 200.555 129.377 200.555C128.639 200.555 128.041 199.957 128.041 199.219C128.041 198.481 128.639 197.882 129.377 197.882C130.115 197.882 130.713 198.481 130.713 199.219Z" fill="white"/>
</g>
<mask id="mask14_5_2028" style="mask-type:luminance" maskUnits="userSpaceOnUse" x="0" y="0" width="318" height="318">
<path fill-rule="evenodd" clip-rule="evenodd" d="M158.515 0.076416C70.9697 0.076416 0 71.0452 0 158.591C0 246.137 70.9697 317.106 158.515 317.106C246.06 317.106 317.03 246.137 317.03 158.591" fill="white"/>
</mask>
<g mask="url(#mask14_5_2028)">
<path fill-rule="evenodd" clip-rule="evenodd" d="M135.008 199.219C135.008 199.957 134.41 200.555 133.673 200.555C132.934 200.555 132.336 199.957 132.336 199.219C132.336 198.481 132.934 197.882 133.673 197.882C134.41 197.882 135.008 198.481 135.008 199.219Z" fill="white"/>
</g>
<mask id="mask15_5_2028" style="mask-type:luminance" maskUnits="userSpaceOnUse" x="0" y="0" width="318" height="318">
<path fill-rule="evenodd" clip-rule="evenodd" d="M158.515 0.076416C70.9697 0.076416 0 71.0452 0 158.591C0 246.137 70.9697 317.106 158.515 317.106C246.06 317.106 317.03 246.137 317.03 158.591" fill="white"/>
</mask>
<g mask="url(#mask15_5_2028)">
<path fill-rule="evenodd" clip-rule="evenodd" d="M139.028 175.701H111.862C111.203 175.701 110.67 175.168 110.67 174.509C110.67 173.851 111.203 173.318 111.862 173.318H139.028C139.686 173.318 140.219 173.851 140.219 174.509C140.219 175.168 139.686 175.701 139.028 175.701Z" fill="white"/>
</g>
<mask id="mask16_5_2028" style="mask-type:luminance" maskUnits="userSpaceOnUse" x="0" y="0" width="318" height="318">
<path fill-rule="evenodd" clip-rule="evenodd" d="M158.515 0.076416C70.9697 0.076416 0 71.0452 0 158.591C0 246.137 70.9697 317.106 158.515 317.106C246.06 317.106 317.03 246.137 317.03 158.591" fill="white"/>
</mask>
<g mask="url(#mask16_5_2028)">
<path fill-rule="evenodd" clip-rule="evenodd" d="M133.149 181.228H117.742C117.083 181.228 116.55 180.695 116.55 180.036C116.55 179.378 117.083 178.844 117.742 178.844H133.149C133.807 178.844 134.341 179.378 134.341 180.036C134.341 180.695 133.807 181.228 133.149 181.228Z" fill="white"/>
</g>
<mask id="mask17_5_2028" style="mask-type:luminance" maskUnits="userSpaceOnUse" x="0" y="0" width="318" height="318">
<path fill-rule="evenodd" clip-rule="evenodd" d="M158.515 0.076416C70.9697 0.076416 0 71.0452 0 158.591C0 246.137 70.9697 317.106 158.515 317.106C246.06 317.106 317.03 246.137 317.03 158.591C317.03 71.0452 246.06 0.076416 158.515 0.076416Z" fill="white"/>
</mask>
<g mask="url(#mask17_5_2028)">
<path fill-rule="evenodd" clip-rule="evenodd" d="M96.6087 197.618C114.613 201.007 115.517 214.195 114.457 235.984C97.3601 233.799 94.0945 213.538 94.0945 213.538L96.6087 197.618Z" fill="#EAC897"/>
</g>
<mask id="mask18_5_2028" style="mask-type:luminance" maskUnits="userSpaceOnUse" x="0" y="0" width="318" height="318">
<path fill-rule="evenodd" clip-rule="evenodd" d="M158.515 0.076416C70.9697 0.076416 0 71.0452 0 158.591C0 246.137 70.9697 317.106 158.515 317.106C246.06 317.106 317.03 246.137 317.03 158.591" fill="white"/>
</mask>
<g mask="url(#mask18_5_2028)">
<path fill-rule="evenodd" clip-rule="evenodd" d="M85.8098 193.899C89.8955 173.996 105.327 161.199 105.327 161.199C105.327 161.199 117.582 172.943 98.3224 189.396C98.3224 196.478 98.4626 198.358 98.4626 198.358" fill="#EAC897"/>
</g>
<mask id="mask19_5_2028" style="mask-type:luminance" maskUnits="userSpaceOnUse" x="0" y="0" width="318" height="318">
<path fill-rule="evenodd" clip-rule="evenodd" d="M158.515 0.076416C70.9697 0.076416 0 71.0452 0 158.591C0 246.137 70.9697 317.106 158.515 317.106C246.06 317.106 317.03 246.137 317.03 158.591" fill="white"/>
</mask>
<g mask="url(#mask19_5_2028)">
<path fill-rule="evenodd" clip-rule="evenodd" d="M152.831 182.48H147.043C144.039 182.48 141.604 180.046 141.604 177.04C141.604 174.036 144.039 171.6 147.043 171.6H152.831C155.836 171.6 158.271 174.036 158.271 177.04C158.271 180.046 155.836 182.48 152.831 182.48Z" fill="#EAC897"/>
</g>
<mask id="mask20_5_2028" style="mask-type:luminance" maskUnits="userSpaceOnUse" x="0" y="0" width="318" height="318">
<path fill-rule="evenodd" clip-rule="evenodd" d="M158.515 0.076416C70.9697 0.076416 0 71.0452 0 158.591C0 246.137 70.9697 317.106 158.515 317.106C246.06 317.106 317.03 246.137 317.03 158.591" fill="white"/>
</mask>
<g mask="url(#mask20_5_2028)">
<path fill-rule="evenodd" clip-rule="evenodd" d="M150.649 194.836H146.596C143.839 194.836 141.603 192.602 141.603 189.844V188.948C141.603 186.191 143.839 183.957 146.596 183.957H150.649C153.406 183.957 155.642 186.191 155.642 188.948V189.844C155.642 192.602 153.406 194.836 150.649 194.836Z" fill="#EAC897"/>
</g>
<mask id="mask21_5_2028" style="mask-type:luminance" maskUnits="userSpaceOnUse" x="0" y="0" width="318" height="318">
<path fill-rule="evenodd" clip-rule="evenodd" d="M158.515 0.076416C70.9697 0.076416 0 71.0452 0 158.591C0 246.137 70.9697 317.106 158.515 317.106C246.06 317.106 317.03 246.137 317.03 158.591" fill="white"/>
</mask>
<g mask="url(#mask21_5_2028)">
<path fill-rule="evenodd" clip-rule="evenodd" d="M151.971 207.964H151.17C148.167 207.964 145.73 205.529 145.73 202.524C145.73 199.52 148.167 197.085 151.17 197.085H151.971C154.976 197.085 157.411 199.52 157.411 202.524C157.411 205.529 154.976 207.964 151.971 207.964Z" fill="#EAC897"/>
</g>
<mask id="mask22_5_2028" style="mask-type:luminance" maskUnits="userSpaceOnUse" x="0" y="0" width="318" height="318">
<path fill-rule="evenodd" clip-rule="evenodd" d="M158.515 0.076416C70.9697 0.076416 0 71.0452 0 158.591C0 246.137 70.9697 317.106 158.515 317.106C246.06 317.106 317.03 246.137 317.03 158.591" fill="white"/>
</mask>
<g mask="url(#mask22_5_2028)">
<path fill-rule="evenodd" clip-rule="evenodd" d="M148.483 181.078C148.536 181.079 148.589 181.079 148.642 181.079C149.299 181.069 149.589 180.278 149.138 179.799C148.461 179.078 148.044 178.109 148.044 177.041C148.044 175.973 148.461 175.003 149.138 174.282C149.584 173.807 149.307 173.015 148.656 173.003C148.632 173.003 148.608 173.003 148.583 173.003C146.351 173.003 144.541 174.813 144.545 177.047C144.549 179.195 146.335 181.024 148.483 181.078Z" fill="#ECDBD0"/>
</g>
<mask id="mask23_5_2028" style="mask-type:luminance" maskUnits="userSpaceOnUse" x="0" y="0" width="318" height="318">
<path fill-rule="evenodd" clip-rule="evenodd" d="M158.515 0.076416C70.9697 0.076416 0 71.0452 0 158.591C0 246.137 70.9697 317.106 158.515 317.106C246.06 317.106 317.03 246.137 317.03 158.591" fill="white"/>
</mask>
<g mask="url(#mask23_5_2028)">
<path fill-rule="evenodd" clip-rule="evenodd" d="M148.004 193.443C148.248 193.451 148.486 193.437 148.718 193.402C149.175 193.334 149.335 192.779 148.986 192.477C148.127 191.732 147.586 190.63 147.595 189.403C147.604 188.176 148.16 187.084 149.029 186.351C149.378 186.055 149.235 185.496 148.783 185.422C148.58 185.388 148.373 185.37 148.162 185.368C145.93 185.353 144.108 187.152 144.095 189.384C144.083 191.533 145.857 193.375 148.004 193.443Z" fill="#ECDBD0"/>
</g>
<mask id="mask24_5_2028" style="mask-type:luminance" maskUnits="userSpaceOnUse" x="0" y="0" width="318" height="318">
<path fill-rule="evenodd" clip-rule="evenodd" d="M158.515 0.076416C70.9697 0.076416 0 71.0452 0 158.591C0 246.137 70.9697 317.106 158.515 317.106C246.06 317.106 317.03 246.137 317.03 158.591" fill="white"/>
</mask>
<g mask="url(#mask24_5_2028)">
<path fill-rule="evenodd" clip-rule="evenodd" d="M150.369 205.727C150.948 205.868 151.508 205.847 152.018 205.705C152.216 205.65 152.251 205.389 152.085 205.27C151.243 204.669 150.702 203.678 150.723 202.566C150.748 201.278 152.597 200.281 152.621 199.678C152.639 199.205 151.723 199.314 151.219 199.327C149.339 199.373 147.801 200.851 147.913 202.774C147.996 204.172 149.009 205.395 150.369 205.727Z" fill="#ECDBD0"/>
</g>
<mask id="mask25_5_2028" style="mask-type:luminance" maskUnits="userSpaceOnUse" x="0" y="0" width="318" height="318">
<path fill-rule="evenodd" clip-rule="evenodd" d="M158.515 0.076416C70.9697 0.076416 0 71.0452 0 158.591C0 246.137 70.9697 317.106 158.515 317.106C246.06 317.106 317.03 246.137 317.03 158.591C317.03 71.0452 246.06 0.076416 158.515 0.076416Z" fill="white"/>
</mask>
<g mask="url(#mask25_5_2028)">
<path fill-rule="evenodd" clip-rule="evenodd" d="M103.371 274.14L69.2964 247.495L74.291 241.107L108.365 267.752L103.371 274.14Z" fill="#ECECEC"/>
</g>
<mask id="mask26_5_2028" style="mask-type:luminance" maskUnits="userSpaceOnUse" x="0" y="0" width="318" height="318">
<path fill-rule="evenodd" clip-rule="evenodd" d="M158.515 0.076416C70.9697 0.076416 0 71.0452 0 158.591C0 246.137 70.9697 317.106 158.515 317.106C246.06 317.106 317.03 246.137 317.03 158.591C317.03 71.0452 246.06 0.076416 158.515 0.076416Z" fill="white"/>
</mask>
<g mask="url(#mask26_5_2028)">
<path fill-rule="evenodd" clip-rule="evenodd" d="M86.2074 304.141L44.3174 271.384L65.3879 244.439L107.278 277.196L86.2074 304.141Z" fill="#535565"/>
</g>
<mask id="mask27_5_2028" style="mask-type:luminance" maskUnits="userSpaceOnUse" x="0" y="0" width="318" height="318">
<path fill-rule="evenodd" clip-rule="evenodd" d="M158.515 0.076416C70.9697 0.076416 0 71.0452 0 158.591C0 246.137 70.9697 317.106 158.515 317.106C246.06 317.106 317.03 246.137 317.03 158.591C317.03 71.0452 246.06 0.076416 158.515 0.076416Z" fill="white"/>
</mask>
<g mask="url(#mask27_5_2028)">
<path fill-rule="evenodd" clip-rule="evenodd" d="M80.3486 256.137L68.5425 246.905L73.5371 240.517L85.3432 249.75L80.3486 256.137Z" fill="#CFCFCF"/>
</g>
<mask id="mask28_5_2028" style="mask-type:luminance" maskUnits="userSpaceOnUse" x="0" y="0" width="318" height="318">
<path fill-rule="evenodd" clip-rule="evenodd" d="M158.515 0.076416C70.9697 0.076416 0 71.0452 0 158.591C0 246.137 70.9697 317.106 158.515 317.106C246.06 317.106 317.03 246.137 317.03 158.591C317.03 71.0452 246.06 0.076416 158.515 0.076416Z" fill="white"/>
</mask>
<g mask="url(#mask28_5_2028)">
<path fill-rule="evenodd" clip-rule="evenodd" d="M57.1448 281.644L44.2996 271.6L65.3701 244.654L78.2162 254.699L57.1448 281.644Z" fill="#38414A"/>
</g>
<mask id="mask29_5_2028" style="mask-type:luminance" maskUnits="userSpaceOnUse" x="0" y="0" width="318" height="318">
<path fill-rule="evenodd" clip-rule="evenodd" d="M158.515 0.076416C70.9697 0.076416 0 71.0452 0 158.591C0 246.137 70.9697 317.106 158.515 317.106C246.06 317.106 317.03 246.137 317.03 158.591" fill="white"/>
</mask>
<g mask="url(#mask29_5_2028)">
<path fill-rule="evenodd" clip-rule="evenodd" d="M103.221 163.145C103.221 163.145 104.708 165.616 104.708 166.412C104.708 167.209 99.4138 173.215 97.8405 173.746C97.2221 173.956 94.1187 174.285 94.1187 174.285C94.1187 174.285 98.7577 167.014 103.221 163.145Z" fill="#ECDBD0"/>
</g>
</svg>
