<svg width="318" height="318" viewBox="0 0 318 318" fill="none" xmlns="http://www.w3.org/2000/svg">
<mask id="mask0_5_2235" style="mask-type:luminance" maskUnits="userSpaceOnUse" x="0" y="0" width="318" height="318">
<path fill-rule="evenodd" clip-rule="evenodd" d="M0 0.0765381H317.03V317.106H0V0.0765381Z" fill="white"/>
</mask>
<g mask="url(#mask0_5_2235)">
<path fill-rule="evenodd" clip-rule="evenodd" d="M158.515 0.0765381C70.9697 0.0765381 0 71.0463 0 158.591C0 246.136 70.9697 317.106 158.515 317.106C246.06 317.106 317.03 246.136 317.03 158.591C317.03 71.0463 246.06 0.0765381 158.515 0.0765381Z" fill="#EFF3F9"/>
</g>
<path fill-rule="evenodd" clip-rule="evenodd" d="M120.795 263.917C109.409 263.917 100.179 254.687 100.179 243.301C100.179 231.915 109.409 222.685 120.795 222.685C132.181 222.685 141.411 231.915 141.411 243.301C141.411 254.687 132.181 263.917 120.795 263.917Z" fill="white"/>
<path fill-rule="evenodd" clip-rule="evenodd" d="M79.1043 221.248C75.781 221.248 73.0872 218.554 73.0872 215.23C73.0872 211.907 75.781 209.212 79.1043 209.212C82.4285 209.212 85.1224 211.907 85.1224 215.23C85.1224 218.554 82.4285 221.248 79.1043 221.248Z" fill="white"/>
<path fill-rule="evenodd" clip-rule="evenodd" d="M177.797 251.321C175.582 251.321 173.787 249.525 173.787 247.311C173.787 245.096 175.582 243.301 177.797 243.301C180.011 243.301 181.806 245.096 181.806 247.311C181.806 249.525 180.011 251.321 177.797 251.321Z" fill="white"/>
<path fill-rule="evenodd" clip-rule="evenodd" d="M233.288 61.9915C231.074 61.9915 229.279 60.1965 229.279 57.9819C229.279 55.7673 231.074 53.9723 233.288 53.9723C235.503 53.9723 237.298 55.7673 237.298 57.9819C237.298 60.1965 235.503 61.9915 233.288 61.9915Z" fill="white"/>
<path fill-rule="evenodd" clip-rule="evenodd" d="M209.34 107.617H218.319V106.835C218.319 104.197 216.18 102.059 213.541 102.059H187.771C185.133 102.059 182.995 104.197 182.995 106.835V183.009H203.022V113.934C203.022 110.444 205.851 107.617 209.34 107.617Z" fill="#E0E8F6"/>
<mask id="mask1_5_2235" style="mask-type:luminance" maskUnits="userSpaceOnUse" x="0" y="0" width="318" height="318">
<path fill-rule="evenodd" clip-rule="evenodd" d="M0 317.106H317.03V0.076416H0V317.106Z" fill="white"/>
</mask>
<g mask="url(#mask1_5_2235)">
<path fill-rule="evenodd" clip-rule="evenodd" d="M155.881 183.01H177.784V117.106H155.881V183.01Z" fill="#D0DBF0"/>
<path fill-rule="evenodd" clip-rule="evenodd" d="M210.276 98.4356H191.037C190.301 98.4356 189.706 97.8391 189.706 97.1043V89.2976C189.706 88.5628 190.301 87.9663 191.037 87.9663H210.276C211.012 87.9663 211.607 88.5628 211.607 89.2976V97.1043C211.607 97.8391 211.012 98.4356 210.276 98.4356Z" fill="#E0E8F6"/>
<path fill-rule="evenodd" clip-rule="evenodd" d="M151.137 183.01H106.547V70.8126C106.547 68.3505 108.861 66.5427 111.25 67.1392L148.267 76.3734C149.954 76.794 151.137 78.3086 151.137 80.0467V183.01Z" fill="#D0DBF0"/>
<path fill-rule="evenodd" clip-rule="evenodd" d="M86.7808 183.01V144.229C86.7808 140.751 89.5992 137.932 93.0774 137.932H100.221V183.01H86.7808Z" fill="#E0E8F6"/>
<path fill-rule="evenodd" clip-rule="evenodd" d="M199.075 175.629C198.151 175.629 197.403 174.88 197.403 173.957V115.088C197.403 114.164 198.151 113.416 199.075 113.416C199.999 113.416 200.747 114.164 200.747 115.088V173.957C200.747 174.88 199.999 175.629 199.075 175.629Z" fill="#C0CBE2"/>
<path fill-rule="evenodd" clip-rule="evenodd" d="M189.796 175.629C188.872 175.629 188.124 174.88 188.124 173.957V115.088C188.124 114.164 188.872 113.416 189.796 113.416C190.72 113.416 191.468 114.164 191.468 115.088V173.957C191.468 174.88 190.72 175.629 189.796 175.629Z" fill="#C0CBE2"/>
<path fill-rule="evenodd" clip-rule="evenodd" d="M142.681 93.2006H116.282C114.836 93.2006 113.665 92.0287 113.665 90.5837C113.665 89.1379 114.836 87.9659 116.282 87.9659H142.681C144.126 87.9659 145.297 89.1379 145.297 90.5837C145.297 92.0287 144.126 93.2006 142.681 93.2006Z" fill="#C1CAE7"/>
<path fill-rule="evenodd" clip-rule="evenodd" d="M142.681 104.675H116.282C114.836 104.675 113.665 103.504 113.665 102.059C113.665 100.613 114.836 99.4408 116.282 99.4408H142.681C144.126 99.4408 145.297 100.613 145.297 102.059C145.297 103.504 144.126 104.675 142.681 104.675Z" fill="#C1CAE7"/>
<path fill-rule="evenodd" clip-rule="evenodd" d="M142.681 116.15H116.282C114.836 116.15 113.665 114.978 113.665 113.533C113.665 112.087 114.836 110.915 116.282 110.915H142.681C144.126 110.915 145.297 112.087 145.297 113.533C145.297 114.978 144.126 116.15 142.681 116.15Z" fill="#C1CAE7"/>
<path fill-rule="evenodd" clip-rule="evenodd" d="M142.681 127.625H116.282C114.836 127.625 113.665 126.453 113.665 125.007C113.665 123.561 114.836 122.39 116.282 122.39H142.681C144.126 122.39 145.297 123.561 145.297 125.007C145.297 126.453 144.126 127.625 142.681 127.625Z" fill="#C1CAE7"/>
<path fill-rule="evenodd" clip-rule="evenodd" d="M142.681 139.099H116.282C114.836 139.099 113.665 137.927 113.665 136.482C113.665 135.036 114.836 133.865 116.282 133.865H142.681C144.126 133.865 145.297 135.036 145.297 136.482C145.297 137.927 144.126 139.099 142.681 139.099Z" fill="#C1CAE7"/>
<path fill-rule="evenodd" clip-rule="evenodd" d="M142.681 150.574H116.282C114.836 150.574 113.665 149.402 113.665 147.957C113.665 146.511 114.836 145.339 116.282 145.339H142.681C144.126 145.339 145.297 146.511 145.297 147.957C145.297 149.402 144.126 150.574 142.681 150.574Z" fill="#C1CAE7"/>
<path fill-rule="evenodd" clip-rule="evenodd" d="M142.681 162.048H116.282C114.836 162.048 113.665 160.876 113.665 159.432C113.665 157.986 114.836 156.814 116.282 156.814H142.681C144.126 156.814 145.297 157.986 145.297 159.432C145.297 160.876 144.126 162.048 142.681 162.048Z" fill="#C1CAE7"/>
<path fill-rule="evenodd" clip-rule="evenodd" d="M142.681 173.522H116.282C114.836 173.522 113.665 172.351 113.665 170.906C113.665 169.46 114.836 168.288 116.282 168.288H142.681C144.126 168.288 145.297 169.46 145.297 170.906C145.297 172.351 144.126 173.522 142.681 173.522Z" fill="#C1CAE7"/>
<path fill-rule="evenodd" clip-rule="evenodd" d="M76.4952 183.01H41.1711V113.327C41.1711 110.173 43.7275 107.616 46.8813 107.616H70.7859C73.9388 107.616 76.4952 110.173 76.4952 113.327V183.01Z" fill="#E0E8F6"/>
<path fill-rule="evenodd" clip-rule="evenodd" d="M69.8076 122.641H47.8601C46.6305 122.641 45.6345 121.645 45.6345 120.415V120.331C45.6345 119.101 46.6305 118.104 47.8601 118.104H69.8076C71.0363 118.104 72.0332 119.101 72.0332 120.331V120.415C72.0332 121.645 71.0363 122.641 69.8076 122.641Z" fill="#C1CAE7"/>
<path fill-rule="evenodd" clip-rule="evenodd" d="M69.8076 132.584H47.8601C46.6305 132.584 45.6345 131.587 45.6345 130.359V130.274C45.6345 129.045 46.6305 128.048 47.8601 128.048H69.8076C71.0363 128.048 72.0332 129.045 72.0332 130.274V130.359C72.0332 131.587 71.0363 132.584 69.8076 132.584Z" fill="#C1CAE7"/>
<path fill-rule="evenodd" clip-rule="evenodd" d="M69.8076 142.528H47.8601C46.6305 142.528 45.6345 141.531 45.6345 140.302V140.218C45.6345 138.988 46.6305 137.991 47.8601 137.991H69.8076C71.0363 137.991 72.0332 138.988 72.0332 140.218V140.302C72.0332 141.531 71.0363 142.528 69.8076 142.528Z" fill="#C1CAE7"/>
<path fill-rule="evenodd" clip-rule="evenodd" d="M69.8076 152.471H47.8601C46.6305 152.471 45.6345 151.474 45.6345 150.245V150.16C45.6345 148.931 46.6305 147.935 47.8601 147.935H69.8076C71.0363 147.935 72.0332 148.931 72.0332 150.16V150.245C72.0332 151.474 71.0363 152.471 69.8076 152.471Z" fill="#C1CAE7"/>
<path fill-rule="evenodd" clip-rule="evenodd" d="M69.8076 162.414H47.8601C46.6305 162.414 45.6345 161.417 45.6345 160.188V160.104C45.6345 158.875 46.6305 157.878 47.8601 157.878H69.8076C71.0363 157.878 72.0332 158.875 72.0332 160.104V160.188C72.0332 161.417 71.0363 162.414 69.8076 162.414Z" fill="#C1CAE7"/>
<path fill-rule="evenodd" clip-rule="evenodd" d="M69.8076 172.357H47.8601C46.6305 172.357 45.6345 171.36 45.6345 170.132V170.047C45.6345 168.818 46.6305 167.822 47.8601 167.822H69.8076C71.0363 167.822 72.0332 168.818 72.0332 170.047V170.132C72.0332 171.36 71.0363 172.357 69.8076 172.357Z" fill="#C1CAE7"/>
<path fill-rule="evenodd" clip-rule="evenodd" d="M248.396 186.173H205.158V117.097C205.158 113.608 207.986 110.78 211.475 110.78H242.078C245.568 110.78 248.396 113.608 248.396 117.097V186.173Z" fill="#E0E8F6"/>
<path fill-rule="evenodd" clip-rule="evenodd" d="M240.666 125.804H212.889C211.636 125.804 210.621 124.789 210.621 123.536C210.621 122.284 211.636 121.268 212.889 121.268H240.666C241.919 121.268 242.935 122.284 242.935 123.536C242.935 124.789 241.919 125.804 240.666 125.804Z" fill="#C1CAE7"/>
<path fill-rule="evenodd" clip-rule="evenodd" d="M240.666 135.747H212.889C211.636 135.747 210.621 134.732 210.621 133.479C210.621 132.227 211.636 131.211 212.889 131.211H240.666C241.919 131.211 242.935 132.227 242.935 133.479C242.935 134.732 241.919 135.747 240.666 135.747Z" fill="#C1CAE7"/>
<path fill-rule="evenodd" clip-rule="evenodd" d="M240.666 145.691H212.889C211.636 145.691 210.621 144.675 210.621 143.423C210.621 142.17 211.636 141.154 212.889 141.154H240.666C241.919 141.154 242.935 142.17 242.935 143.423C242.935 144.675 241.919 145.691 240.666 145.691Z" fill="#C1CAE7"/>
<path fill-rule="evenodd" clip-rule="evenodd" d="M97.5246 110.915C94.0638 110.915 91.2573 108.11 91.2573 104.649V93.1599H68.0601V103.64H74.1294C77.7478 103.64 80.6808 106.573 80.6808 110.192V183.009H84.1406V141.854C84.1406 138.013 87.2532 134.9 91.0933 134.9H100.22V110.915H97.5246Z" fill="#D0DBF0"/>
<path fill-rule="evenodd" clip-rule="evenodd" d="M206.931 81.1803H194.381C193.646 81.1803 193.051 80.5838 193.051 79.849V73.6669C193.051 72.9321 193.646 72.3356 194.381 72.3356H206.931C207.667 72.3356 208.263 72.9321 208.263 73.6669V79.849C208.263 80.5838 207.667 81.1803 206.931 81.1803Z" fill="#E0E8F6"/>
<path fill-rule="evenodd" clip-rule="evenodd" d="M203.023 69.8451H198.29V57.546C198.29 57.0448 198.696 56.6379 199.197 56.6379H202.116C202.617 56.6379 203.023 57.0448 203.023 57.546V69.8451Z" fill="#E0E8F6"/>
<path fill-rule="evenodd" clip-rule="evenodd" d="M214.76 194.608H75.591C73.6265 194.608 72.0322 193.016 72.0322 191.049C72.0322 189.084 73.6265 187.491 75.591 187.491H214.76C216.725 187.491 218.318 189.084 218.318 191.049C218.318 193.016 216.725 194.608 214.76 194.608Z" fill="#7E89A0"/>
<path fill-rule="evenodd" clip-rule="evenodd" d="M299.468 200.935C299.468 191.483 291.806 183.82 282.354 183.82H269.318H260.497H36.0418C33.3424 183.82 31.1544 181.633 31.1544 178.934C31.1544 176.235 33.3424 174.046 36.0418 174.046H37.4812V166.707H28.2342C18.782 166.707 11.1201 174.369 11.1201 183.82C11.1201 193.273 18.782 200.935 28.2342 200.935H265.239H277.466C280.166 200.935 282.354 203.123 282.354 205.822C282.354 208.521 280.166 210.709 277.466 210.709H268.316H244.259C242.231 210.709 240.588 212.352 240.588 214.38C240.588 216.407 242.231 218.049 244.259 218.049H282.556V218.039C291.914 217.929 299.468 210.318 299.468 200.935Z" fill="#919DB6"/>
<path fill-rule="evenodd" clip-rule="evenodd" d="M226.422 210.709H202.744C200.718 210.709 199.075 212.352 199.075 214.38C199.075 216.407 200.718 218.049 202.744 218.049H226.422C228.449 218.049 230.092 216.407 230.092 214.38C230.092 212.352 228.449 210.709 226.422 210.709Z" fill="#919DB6"/>
<path fill-rule="evenodd" clip-rule="evenodd" d="M187.374 263.679H121.931C112.359 263.679 104.599 255.919 104.599 246.347V84.0261C104.599 74.4538 112.359 66.6948 121.931 66.6948H187.374C196.946 66.6948 204.706 74.4538 204.706 84.0261V246.347C204.706 255.919 196.946 263.679 187.374 263.679Z" fill="#535565"/>
<path fill-rule="evenodd" clip-rule="evenodd" d="M183.629 258.603H125.676C116.838 258.603 109.675 251.44 109.675 242.602V87.7718C109.675 78.9344 116.838 71.771 125.676 71.771H183.629C192.466 71.771 199.63 78.9344 199.63 87.7718V242.602C199.63 251.44 192.466 258.603 183.629 258.603Z" fill="#FFE3E0"/>
<path fill-rule="evenodd" clip-rule="evenodd" d="M183.629 258.603H125.676C116.838 258.603 109.675 251.44 109.675 242.602V87.7718C109.675 78.9344 116.838 71.771 125.676 71.771H183.629C192.466 71.771 199.63 78.9344 199.63 87.7718V242.602C199.63 251.44 192.466 258.603 183.629 258.603Z" fill="#F5C009"/>
<path fill-rule="evenodd" clip-rule="evenodd" d="M169.095 78.8044H140.21C136.594 78.8044 133.662 75.8723 133.662 72.2567V69.3494H175.642V72.2567C175.642 75.8723 172.71 78.8044 169.095 78.8044Z" fill="#535565"/>
<path fill-rule="evenodd" clip-rule="evenodd" d="M181.454 232.311H127.851C125.65 232.311 123.866 230.443 123.866 228.141V173.026C123.866 170.722 125.65 168.855 127.851 168.855H181.454C183.654 168.855 185.438 170.722 185.438 173.026V228.141C185.438 230.443 183.654 232.311 181.454 232.311Z" fill="#E5E5E5"/>
<path fill-rule="evenodd" clip-rule="evenodd" d="M180.028 113.344H129.277C128.048 113.344 127.052 112.348 127.052 111.118C127.052 109.889 128.048 108.892 129.277 108.892H180.028C181.257 108.892 182.254 109.889 182.254 111.118C182.254 112.348 181.257 113.344 180.028 113.344Z" fill="white"/>
<path fill-rule="evenodd" clip-rule="evenodd" d="M169.044 123.669H140.26C139.032 123.669 138.035 122.673 138.035 121.443C138.035 120.214 139.032 119.217 140.26 119.217H169.044C170.274 119.217 171.271 120.214 171.271 121.443C171.271 122.673 170.274 123.669 169.044 123.669Z" fill="white"/>
<path fill-rule="evenodd" clip-rule="evenodd" d="M185.291 236.628H124.014C121.731 236.628 119.88 234.71 119.88 232.344V176.678C119.88 174.312 121.731 172.395 124.014 172.395H185.291C187.573 172.395 189.425 174.312 189.425 176.678V232.344C189.425 234.71 187.573 236.628 185.291 236.628Z" fill="#EEEEEE"/>
<path fill-rule="evenodd" clip-rule="evenodd" d="M188.726 239.804H120.247C117.901 239.804 116 237.903 116 235.557V179.818C116 177.473 117.901 175.571 120.247 175.571H188.726C191.072 175.571 192.973 177.473 192.973 179.818V235.557C192.973 237.903 191.072 239.804 188.726 239.804Z" fill="white"/>
<path fill-rule="evenodd" clip-rule="evenodd" d="M171.432 198.3C176.149 198.3 179.973 194.477 179.973 189.76C179.973 185.043 176.149 181.218 171.432 181.218C166.716 181.218 162.892 185.043 162.892 189.76C162.892 194.477 166.716 198.3 171.432 198.3Z" fill="#EFEFEF"/>
<path fill-rule="evenodd" clip-rule="evenodd" d="M123.682 187.748H156.503C157.284 187.748 157.915 187.117 157.915 186.336C157.915 185.556 157.284 184.925 156.503 184.925H123.682C122.902 184.925 122.271 185.556 122.271 186.336C122.271 187.117 122.902 187.748 123.682 187.748Z" fill="#EFEFEF"/>
<path fill-rule="evenodd" clip-rule="evenodd" d="M116.166 204.329H193.139V204.122H116.166V204.329Z" fill="#E2E2E2"/>
<path fill-rule="evenodd" clip-rule="evenodd" d="M184.001 232.216H125.853C124.277 232.216 123 230.938 123 229.362V222.854C123 221.277 124.277 220 125.853 220H184.001C185.578 220 186.855 221.277 186.855 222.854V229.362C186.855 230.938 185.578 232.216 184.001 232.216Z" fill="#F5C009"/>
</g>
<path d="M147 228.496L147.336 227.848H148.76C148.973 227.848 149.123 227.795 149.208 227.688C149.299 227.581 149.344 227.397 149.344 227.136C149.344 226.427 149.016 225.893 148.36 225.536L148.712 224.944C149.549 225.435 149.987 226.112 150.024 226.976C150.035 227.285 150.104 227.509 150.232 227.648C150.365 227.781 150.576 227.848 150.864 227.848H151.336V228.496H150.808C150.365 228.496 150.019 228.355 149.768 228.072C149.592 228.355 149.296 228.496 148.88 228.496H147Z" fill="white"/>
<path d="M153.644 227.848H154.172V228.496H153.564C153.121 228.496 152.772 228.355 152.516 228.072C152.26 228.355 151.91 228.496 151.468 228.496H150.86V227.848H151.388C151.91 227.848 152.172 227.581 152.172 227.048V225.392L152.86 225.024V227.048C152.86 227.581 153.121 227.848 153.644 227.848ZM151.732 229.296C151.988 229.296 152.116 229.429 152.116 229.696C152.116 229.957 151.988 230.088 151.732 230.088C151.47 230.088 151.34 229.957 151.34 229.696C151.34 229.429 151.47 229.296 151.732 229.296ZM152.748 229.296C153.004 229.296 153.132 229.429 153.132 229.696C153.132 229.957 153.004 230.088 152.748 230.088C152.486 230.088 152.356 229.957 152.356 229.696C152.356 229.429 152.486 229.296 152.748 229.296Z" fill="white"/>
<path d="M155.264 225.112C155.269 225.112 155.277 225.112 155.288 225.112C155.298 225.112 155.306 225.112 155.312 225.112C155.914 225.112 156.402 225.299 156.776 225.672C157.117 226.008 157.288 226.437 157.288 226.96V227.096C157.288 227.555 157.146 227.912 156.864 228.168C156.613 228.387 156.29 228.496 155.896 228.496H153.688V227.848H155.832C156.344 227.848 156.6 227.579 156.6 227.04V226.968C156.6 226.573 156.445 226.269 156.136 226.056C155.89 225.891 155.592 225.808 155.24 225.808C154.957 225.808 154.672 225.859 154.384 225.96V225.28L156.136 223.336H156.84L155.264 225.112Z" fill="white"/>
<path d="M158.068 223.224L158.252 222.88H158.468C158.414 222.784 158.388 222.683 158.388 222.576C158.388 222.421 158.446 222.288 158.564 222.176C158.681 222.059 158.817 222 158.972 222C159.105 222 159.233 222.043 159.356 222.128V222.48C159.244 222.389 159.132 222.344 159.02 222.344C158.822 222.344 158.724 222.435 158.724 222.616C158.724 222.701 158.764 222.789 158.844 222.88H159.572L159.388 223.224H158.068ZM159.884 228.496C159.42 228.496 159.062 228.347 158.812 228.048C158.598 227.792 158.492 227.467 158.492 227.072V224.024L159.18 223.656V227.048C159.18 227.581 159.441 227.848 159.964 227.848H160.492V228.496H159.884Z" fill="white"/>
<path d="M160.624 224.056C160.363 224.056 160.232 223.923 160.232 223.656C160.232 223.395 160.363 223.264 160.624 223.264C160.88 223.264 161.008 223.395 161.008 223.656C161.008 223.923 160.88 224.056 160.624 224.056ZM161.64 224.056C161.379 224.056 161.248 223.923 161.248 223.656C161.248 223.395 161.379 223.264 161.64 223.264C161.896 223.264 162.024 223.395 162.024 223.656C162.024 223.923 161.896 224.056 161.64 224.056ZM160.008 228.496V227.848H160.536C161.059 227.848 161.32 227.581 161.32 227.048V225.392L162.008 225.024V227.072C162.008 227.525 161.872 227.883 161.6 228.144C161.349 228.379 161.021 228.496 160.616 228.496H160.008Z" fill="white"/>
<path fill-rule="evenodd" clip-rule="evenodd" d="M153.682 193.244C153.593 193.153 153.561 193.021 153.6 192.898C153.638 192.774 153.739 192.687 153.86 192.669L154.932 192.506C154.953 192.503 154.972 192.49 154.981 192.469L155.46 191.457C155.515 191.341 155.626 191.269 155.75 191.269C155.874 191.269 155.985 191.341 156.039 191.457L156.519 192.469C156.527 192.49 156.547 192.503 156.567 192.506L157.639 192.669C157.762 192.688 157.861 192.775 157.9 192.898C157.938 193.022 157.906 193.154 157.818 193.244L157.042 194.033C157.027 194.048 157.02 194.07 157.023 194.092L157.207 195.206C157.228 195.333 157.178 195.459 157.079 195.535C156.979 195.611 156.848 195.621 156.739 195.561L155.78 195.036C155.761 195.025 155.738 195.025 155.72 195.036L154.762 195.561C154.714 195.587 154.662 195.599 154.611 195.599C154.544 195.599 154.478 195.578 154.422 195.535C154.321 195.459 154.272 195.333 154.293 195.206L154.476 194.092C154.48 194.07 154.472 194.048 154.458 194.032L153.682 193.244Z" fill="#F5C009"/>
<path fill-rule="evenodd" clip-rule="evenodd" d="M148.547 193.244C148.457 193.153 148.426 193.021 148.465 192.898C148.503 192.774 148.604 192.687 148.725 192.669L149.797 192.506C149.818 192.503 149.836 192.49 149.845 192.469L150.325 191.457C150.38 191.341 150.491 191.269 150.615 191.269C150.739 191.269 150.85 191.341 150.904 191.457L151.384 192.469C151.393 192.49 151.411 192.503 151.432 192.506L152.504 192.669C152.626 192.688 152.726 192.775 152.765 192.898C152.803 193.022 152.771 193.154 152.683 193.244L151.907 194.033C151.892 194.048 151.885 194.07 151.888 194.092L152.072 195.206C152.093 195.333 152.043 195.459 151.944 195.535C151.844 195.611 151.713 195.621 151.604 195.561L150.644 195.036C150.626 195.025 150.603 195.025 150.585 195.036L149.626 195.561C149.579 195.587 149.527 195.599 149.476 195.599C149.408 195.599 149.342 195.578 149.287 195.535C149.186 195.459 149.137 195.333 149.157 195.206L149.341 194.092C149.344 194.07 149.337 194.048 149.322 194.032L148.547 193.244Z" fill="#F5C009"/>
<path fill-rule="evenodd" clip-rule="evenodd" d="M143.027 193.244C142.937 193.153 142.906 193.021 142.945 192.898C142.983 192.774 143.084 192.687 143.205 192.669L144.277 192.506C144.298 192.503 144.316 192.49 144.325 192.469L144.805 191.457C144.86 191.341 144.971 191.269 145.095 191.269C145.219 191.269 145.33 191.341 145.384 191.457L145.864 192.469C145.872 192.49 145.891 192.503 145.912 192.506L146.984 192.669C147.106 192.688 147.206 192.775 147.245 192.898C147.283 193.022 147.251 193.154 147.163 193.244L146.387 194.033C146.371 194.048 146.365 194.07 146.368 194.092L146.552 195.206C146.573 195.333 146.523 195.459 146.424 195.535C146.324 195.611 146.193 195.621 146.084 195.561L145.124 195.036C145.106 195.025 145.083 195.025 145.065 195.036L144.106 195.561C144.059 195.587 144.007 195.599 143.956 195.599C143.888 195.599 143.822 195.578 143.767 195.535C143.666 195.459 143.617 195.333 143.637 195.206L143.821 194.092C143.824 194.07 143.817 194.048 143.802 194.032L143.027 193.244Z" fill="#F5C009"/>
<path fill-rule="evenodd" clip-rule="evenodd" d="M137.892 193.244C137.803 193.153 137.772 193.021 137.81 192.898C137.848 192.774 137.949 192.687 138.071 192.669L139.142 192.506C139.164 192.503 139.181 192.49 139.191 192.469L139.67 191.457C139.725 191.341 139.836 191.269 139.96 191.269C140.085 191.269 140.195 191.341 140.25 191.457L140.729 192.469C140.738 192.49 140.756 192.503 140.777 192.506L141.848 192.669C141.971 192.688 142.072 192.775 142.11 192.898C142.148 193.022 142.116 193.154 142.028 193.244L141.253 194.033C141.237 194.048 141.231 194.07 141.234 194.092L141.418 195.206C141.438 195.333 141.388 195.459 141.289 195.535C141.189 195.611 141.058 195.621 140.949 195.561L139.99 195.036C139.972 195.025 139.949 195.025 139.931 195.036L138.972 195.561C138.924 195.587 138.872 195.599 138.821 195.599C138.754 195.599 138.688 195.578 138.631 195.535C138.531 195.459 138.482 195.333 138.503 195.206L138.685 194.092C138.689 194.07 138.683 194.048 138.668 194.032L137.892 193.244Z" fill="#F5C009"/>
<path fill-rule="evenodd" clip-rule="evenodd" d="M132.603 193.244C132.514 193.153 132.482 193.021 132.521 192.898C132.559 192.774 132.659 192.687 132.781 192.669L133.853 192.506C133.874 192.503 133.892 192.49 133.902 192.469L134.38 191.457C134.436 191.341 134.547 191.269 134.671 191.269C134.795 191.269 134.906 191.341 134.96 191.457L135.44 192.469C135.448 192.49 135.468 192.503 135.488 192.506L136.559 192.669C136.682 192.688 136.783 192.775 136.821 192.898C136.859 193.022 136.827 193.154 136.739 193.244L135.963 194.033C135.948 194.048 135.941 194.07 135.944 194.092L136.128 195.206C136.148 195.333 136.099 195.459 135.999 195.535C135.899 195.611 135.769 195.621 135.659 195.561L134.701 195.036C134.682 195.025 134.66 195.025 134.641 195.036L133.683 195.561C133.634 195.587 133.583 195.599 133.532 195.599C133.465 195.599 133.399 195.578 133.342 195.535C133.242 195.459 133.193 195.333 133.214 195.206L133.396 194.092C133.4 194.07 133.393 194.048 133.379 194.032L132.603 193.244Z" fill="#F5C009"/>
</svg>
