<svg width="318" height="318" viewBox="0 0 318 318" fill="none" xmlns="http://www.w3.org/2000/svg">
<mask id="mask0_5_2326" style="mask-type:luminance" maskUnits="userSpaceOnUse" x="0" y="0" width="318" height="318">
<path fill-rule="evenodd" clip-rule="evenodd" d="M0 0.0765381H317.03V317.106H0V0.0765381Z" fill="white"/>
</mask>
<g mask="url(#mask0_5_2326)">
<path fill-rule="evenodd" clip-rule="evenodd" d="M158.515 0.0765381C70.9697 0.0765381 0 71.0463 0 158.591C0 246.136 70.9697 317.106 158.515 317.106C246.06 317.106 317.03 246.136 317.03 158.591C317.03 71.0463 246.06 0.0765381 158.515 0.0765381Z" fill="#EFF3F9"/>
</g>
<path fill-rule="evenodd" clip-rule="evenodd" d="M120.795 263.917C109.409 263.917 100.179 254.687 100.179 243.301C100.179 231.915 109.409 222.685 120.795 222.685C132.181 222.685 141.411 231.915 141.411 243.301C141.411 254.687 132.181 263.917 120.795 263.917Z" fill="white"/>
<path fill-rule="evenodd" clip-rule="evenodd" d="M79.1045 221.248C75.7812 221.248 73.0874 218.554 73.0874 215.23C73.0874 211.907 75.7812 209.212 79.1045 209.212C82.4288 209.212 85.1226 211.907 85.1226 215.23C85.1226 218.554 82.4288 221.248 79.1045 221.248Z" fill="white"/>
<path fill-rule="evenodd" clip-rule="evenodd" d="M177.797 251.321C175.582 251.321 173.787 249.525 173.787 247.311C173.787 245.096 175.582 243.301 177.797 243.301C180.011 243.301 181.806 245.096 181.806 247.311C181.806 249.525 180.011 251.321 177.797 251.321Z" fill="white"/>
<path fill-rule="evenodd" clip-rule="evenodd" d="M233.288 61.9915C231.074 61.9915 229.279 60.1965 229.279 57.9819C229.279 55.7673 231.074 53.9723 233.288 53.9723C235.503 53.9723 237.298 55.7673 237.298 57.9819C237.298 60.1965 235.503 61.9915 233.288 61.9915Z" fill="white"/>
<path fill-rule="evenodd" clip-rule="evenodd" d="M215.331 98.4227H224.31V97.6411C224.31 95.0032 222.171 92.8646 219.532 92.8646H193.762C191.124 92.8646 188.986 95.0032 188.986 97.6411V173.816H209.014V104.74C209.014 101.251 211.842 98.4227 215.331 98.4227Z" fill="#E0E8F6"/>
<mask id="mask1_5_2326" style="mask-type:luminance" maskUnits="userSpaceOnUse" x="0" y="0" width="318" height="318">
<path fill-rule="evenodd" clip-rule="evenodd" d="M0 317.106H317.03V0.076416H0V317.106Z" fill="white"/>
</mask>
<g mask="url(#mask1_5_2326)">
<path fill-rule="evenodd" clip-rule="evenodd" d="M161.873 173.816H183.776V107.913H161.873V173.816Z" fill="#D0DBF0"/>
<path fill-rule="evenodd" clip-rule="evenodd" d="M216.268 89.2416H197.029C196.293 89.2416 195.697 88.6461 195.697 87.9103V80.1037C195.697 79.3688 196.293 78.7723 197.029 78.7723H216.268C217.003 78.7723 217.599 79.3688 217.599 80.1037V87.9103C217.599 88.6461 217.003 89.2416 216.268 89.2416Z" fill="#E0E8F6"/>
<path fill-rule="evenodd" clip-rule="evenodd" d="M157.128 173.816H112.539V61.6186C112.539 59.1566 114.852 57.3497 117.242 57.9452L154.258 67.1794C155.945 67.6 157.128 69.1146 157.128 70.8527V173.816Z" fill="#D0DBF0"/>
<path fill-rule="evenodd" clip-rule="evenodd" d="M92.7725 173.816V135.035C92.7725 131.557 95.5909 128.738 99.0691 128.738H106.212V173.816H92.7725Z" fill="#E0E8F6"/>
<path fill-rule="evenodd" clip-rule="evenodd" d="M205.066 166.435C204.143 166.435 203.394 165.686 203.394 164.762V105.895C203.394 104.97 204.143 104.223 205.066 104.223C205.99 104.223 206.739 104.97 206.739 105.895V164.762C206.739 165.686 205.99 166.435 205.066 166.435Z" fill="#C0CBE2"/>
<path fill-rule="evenodd" clip-rule="evenodd" d="M195.788 166.435C194.864 166.435 194.115 165.686 194.115 164.762V105.895C194.115 104.97 194.864 104.223 195.788 104.223C196.711 104.223 197.46 104.97 197.46 105.895V164.762C197.46 165.686 196.711 166.435 195.788 166.435Z" fill="#C0CBE2"/>
<path fill-rule="evenodd" clip-rule="evenodd" d="M148.672 84.0071H122.273C120.827 84.0071 119.656 82.8352 119.656 81.3902C119.656 79.9444 120.827 78.7725 122.273 78.7725H148.672C150.118 78.7725 151.289 79.9444 151.289 81.3902C151.289 82.8352 150.118 84.0071 148.672 84.0071Z" fill="#C1CAE7"/>
<path fill-rule="evenodd" clip-rule="evenodd" d="M148.672 95.4814H122.273C120.827 95.4814 119.656 94.3094 119.656 92.8645C119.656 91.4186 120.827 90.2467 122.273 90.2467H148.672C150.118 90.2467 151.289 91.4186 151.289 92.8645C151.289 94.3094 150.118 95.4814 148.672 95.4814Z" fill="#C1CAE7"/>
<path fill-rule="evenodd" clip-rule="evenodd" d="M148.672 106.956H122.273C120.827 106.956 119.656 105.784 119.656 104.339C119.656 102.894 120.827 101.722 122.273 101.722H148.672C150.118 101.722 151.289 102.894 151.289 104.339C151.289 105.784 150.118 106.956 148.672 106.956Z" fill="#C1CAE7"/>
<path fill-rule="evenodd" clip-rule="evenodd" d="M148.672 118.431H122.273C120.827 118.431 119.656 117.259 119.656 115.814C119.656 114.368 120.827 113.196 122.273 113.196H148.672C150.118 113.196 151.289 114.368 151.289 115.814C151.289 117.259 150.118 118.431 148.672 118.431Z" fill="#C1CAE7"/>
<path fill-rule="evenodd" clip-rule="evenodd" d="M148.672 129.905H122.273C120.827 129.905 119.656 128.733 119.656 127.288C119.656 125.842 120.827 124.671 122.273 124.671H148.672C150.118 124.671 151.289 125.842 151.289 127.288C151.289 128.733 150.118 129.905 148.672 129.905Z" fill="#C1CAE7"/>
<path fill-rule="evenodd" clip-rule="evenodd" d="M148.672 141.38H122.273C120.827 141.38 119.656 140.208 119.656 138.762C119.656 137.317 120.827 136.145 122.273 136.145H148.672C150.118 136.145 151.289 137.317 151.289 138.762C151.289 140.208 150.118 141.38 148.672 141.38Z" fill="#C1CAE7"/>
<path fill-rule="evenodd" clip-rule="evenodd" d="M148.672 152.854H122.273C120.827 152.854 119.656 151.682 119.656 150.238C119.656 148.792 120.827 147.62 122.273 147.62H148.672C150.118 147.62 151.289 148.792 151.289 150.238C151.289 151.682 150.118 152.854 148.672 152.854Z" fill="#C1CAE7"/>
<path fill-rule="evenodd" clip-rule="evenodd" d="M148.672 164.329H122.273C120.827 164.329 119.656 163.157 119.656 161.712C119.656 160.266 120.827 159.095 122.273 159.095H148.672C150.118 159.095 151.289 160.266 151.289 161.712C151.289 163.157 150.118 164.329 148.672 164.329Z" fill="#C1CAE7"/>
<path fill-rule="evenodd" clip-rule="evenodd" d="M82.4867 173.816H47.1626V104.133C47.1626 100.979 49.719 98.4224 52.8728 98.4224H76.7774C79.9303 98.4224 82.4867 100.979 82.4867 104.133V173.816Z" fill="#E0E8F6"/>
<path fill-rule="evenodd" clip-rule="evenodd" d="M75.7992 113.447H53.8518C52.6221 113.447 51.6252 112.451 51.6252 111.221V111.137C51.6252 109.907 52.6221 108.91 53.8518 108.91H75.7992C77.0279 108.91 78.0248 109.907 78.0248 111.137V111.221C78.0248 112.451 77.0279 113.447 75.7992 113.447Z" fill="#C1CAE7"/>
<path fill-rule="evenodd" clip-rule="evenodd" d="M75.7992 123.39H53.8518C52.6221 123.39 51.6252 122.394 51.6252 121.164V121.08C51.6252 119.851 52.6221 118.854 53.8518 118.854H75.7992C77.0279 118.854 78.0248 119.851 78.0248 121.08V121.164C78.0248 122.394 77.0279 123.39 75.7992 123.39Z" fill="#C1CAE7"/>
<path fill-rule="evenodd" clip-rule="evenodd" d="M75.7992 133.334H53.8518C52.6221 133.334 51.6252 132.338 51.6252 131.108V131.024C51.6252 129.794 52.6221 128.797 53.8518 128.797H75.7992C77.0279 128.797 78.0248 129.794 78.0248 131.024V131.108C78.0248 132.338 77.0279 133.334 75.7992 133.334Z" fill="#C1CAE7"/>
<path fill-rule="evenodd" clip-rule="evenodd" d="M75.7992 143.277H53.8518C52.6221 143.277 51.6252 142.281 51.6252 141.051V140.967C51.6252 139.737 52.6221 138.74 53.8518 138.74H75.7992C77.0279 138.74 78.0248 139.737 78.0248 140.967V141.051C78.0248 142.281 77.0279 143.277 75.7992 143.277Z" fill="#C1CAE7"/>
<path fill-rule="evenodd" clip-rule="evenodd" d="M75.7992 153.22H53.8518C52.6221 153.22 51.6252 152.224 51.6252 150.995V150.91C51.6252 149.681 52.6221 148.684 53.8518 148.684H75.7992C77.0279 148.684 78.0248 149.681 78.0248 150.91V150.995C78.0248 152.224 77.0279 153.22 75.7992 153.22Z" fill="#C1CAE7"/>
<path fill-rule="evenodd" clip-rule="evenodd" d="M75.7992 163.163H53.8518C52.6221 163.163 51.6252 162.167 51.6252 160.938V160.853C51.6252 159.625 52.6221 158.628 53.8518 158.628H75.7992C77.0279 158.628 78.0248 159.625 78.0248 160.853V160.938C78.0248 162.167 77.0279 163.163 75.7992 163.163Z" fill="#C1CAE7"/>
<path fill-rule="evenodd" clip-rule="evenodd" d="M254.388 176.979H211.15V107.903C211.15 104.414 213.977 101.586 217.466 101.586H248.07C251.559 101.586 254.388 104.414 254.388 107.903V176.979Z" fill="#E0E8F6"/>
<path fill-rule="evenodd" clip-rule="evenodd" d="M246.657 116.61H218.88C217.627 116.61 216.612 115.595 216.612 114.341C216.612 113.09 217.627 112.074 218.88 112.074H246.657C247.91 112.074 248.926 113.09 248.926 114.341C248.926 115.595 247.91 116.61 246.657 116.61Z" fill="#C1CAE7"/>
<path fill-rule="evenodd" clip-rule="evenodd" d="M246.657 126.554H218.88C217.627 126.554 216.612 125.538 216.612 124.285C216.612 123.032 217.627 122.017 218.88 122.017H246.657C247.91 122.017 248.926 123.032 248.926 124.285C248.926 125.538 247.91 126.554 246.657 126.554Z" fill="#C1CAE7"/>
<path fill-rule="evenodd" clip-rule="evenodd" d="M246.657 136.497H218.88C217.627 136.497 216.612 135.482 216.612 134.228C216.612 132.976 217.627 131.961 218.88 131.961H246.657C247.91 131.961 248.926 132.976 248.926 134.228C248.926 135.482 247.91 136.497 246.657 136.497Z" fill="#C1CAE7"/>
<path fill-rule="evenodd" clip-rule="evenodd" d="M103.516 101.721C100.056 101.721 97.249 98.9157 97.249 95.4549V83.9658H74.0518V94.4461H80.1211C83.7395 94.4461 86.6725 97.3791 86.6725 100.997V173.816H90.1323V132.66C90.1323 128.819 93.2449 125.707 97.085 125.707H106.212V101.721H103.516Z" fill="#D0DBF0"/>
<path fill-rule="evenodd" clip-rule="evenodd" d="M212.923 71.9863H200.373C199.638 71.9863 199.041 71.3907 199.041 70.655V64.4738C199.041 63.738 199.638 63.1425 200.373 63.1425H212.923C213.659 63.1425 214.254 63.738 214.254 64.4738V70.655C214.254 71.3907 213.659 71.9863 212.923 71.9863Z" fill="#E0E8F6"/>
<path fill-rule="evenodd" clip-rule="evenodd" d="M209.014 60.6511H204.282V48.352C204.282 47.8508 204.688 47.444 205.189 47.444H208.107C208.608 47.444 209.014 47.8508 209.014 48.352V60.6511Z" fill="#E0E8F6"/>
<path fill-rule="evenodd" clip-rule="evenodd" d="M220.751 185.414H81.5827C79.6182 185.414 78.0239 183.822 78.0239 181.855C78.0239 179.891 79.6182 178.297 81.5827 178.297H220.751C222.717 178.297 224.31 179.891 224.31 181.855C224.31 183.822 222.717 185.414 220.751 185.414Z" fill="#7E89A0"/>
<path fill-rule="evenodd" clip-rule="evenodd" d="M305.459 191.741C305.459 182.29 297.797 174.626 288.345 174.626H275.309H266.488H42.033C39.3336 174.626 37.1456 172.439 37.1456 169.74C37.1456 167.04 39.3336 164.852 42.033 164.852H43.4724V157.513H34.2254C24.7732 157.513 17.1113 165.175 17.1113 174.626C17.1113 184.079 24.7732 191.741 34.2254 191.741H271.231H283.457C286.158 191.741 288.345 193.929 288.345 196.628C288.345 199.327 286.158 201.515 283.457 201.515H274.308H250.25C248.222 201.515 246.579 203.159 246.579 205.186C246.579 207.212 248.222 208.855 250.25 208.855H288.547V208.845C297.905 208.735 305.459 201.125 305.459 191.741Z" fill="#919DB6"/>
<path fill-rule="evenodd" clip-rule="evenodd" d="M232.413 201.515H208.736C206.709 201.515 205.066 203.159 205.066 205.186C205.066 207.213 206.709 208.855 208.736 208.855H232.413C234.44 208.855 236.083 207.213 236.083 205.186C236.083 203.159 234.44 201.515 232.413 201.515Z" fill="#919DB6"/>
<path fill-rule="evenodd" clip-rule="evenodd" d="M121.945 237.232H187.001L199.37 264.72H110.034L121.945 237.232Z" fill="#DCE3ED"/>
<path fill-rule="evenodd" clip-rule="evenodd" d="M110.034 268.385H199.37V264.72H110.034V268.385Z" fill="#B3C5D0"/>
<path fill-rule="evenodd" clip-rule="evenodd" d="M174.703 254.87H147.215C145.064 254.87 143.321 253.127 143.321 250.976C143.321 248.825 145.064 247.082 147.215 247.082H174.703C176.854 247.082 178.597 248.825 178.597 250.976C178.597 253.127 176.854 254.87 174.703 254.87Z" fill="#B3C5D0"/>
<path fill-rule="evenodd" clip-rule="evenodd" d="M158.687 174.195C132.157 174.195 111.304 153.761 111.304 127.762C111.304 101.762 132.156 81.3285 158.687 81.3285C185.217 81.3285 206.069 101.762 206.069 127.762C206.069 153.761 185.216 174.195 158.687 174.195Z" fill="white"/>
<path fill-rule="evenodd" clip-rule="evenodd" d="M158.686 164.55C137.667 164.55 121.147 148.36 121.147 127.762C121.147 107.163 137.667 90.9737 158.686 90.9737C179.706 90.9737 196.226 107.163 196.226 127.762C196.226 148.36 179.705 164.55 158.686 164.55ZM158.687 59.8627C120.578 59.8627 89.4019 90.4157 89.4019 127.762C89.4019 178.686 158.687 253.861 158.687 253.861C158.687 253.861 227.971 178.686 227.971 127.762C227.971 90.4157 196.795 59.8627 158.687 59.8627Z" fill="#FDCD03"/>
</g>
<mask id="mask2_5_2326" style="mask-type:luminance" maskUnits="userSpaceOnUse" x="89" y="59" width="70" height="195">
<path fill-rule="evenodd" clip-rule="evenodd" d="M89.4019 59.9226H158.686V253.922H89.4019V59.9226Z" fill="white"/>
</mask>
<g mask="url(#mask2_5_2326)">
<path fill-rule="evenodd" clip-rule="evenodd" d="M158.686 164.61C137.667 164.61 121.147 148.421 121.147 127.823C121.147 107.223 137.667 91.0346 158.686 91.0346C179.706 91.0346 196.226 107.223 196.226 127.823C196.226 148.421 179.705 164.61 158.686 164.61ZM158.687 59.9226C120.578 59.9226 89.4019 90.4766 89.4019 127.823C89.4019 178.747 158.687 253.922 158.687 253.922C158.687 253.922 227.971 178.747 227.971 127.823C227.971 90.4766 196.795 59.9226 158.687 59.9226Z" fill="#FFDA3E"/>
</g>
<path fill-rule="evenodd" clip-rule="evenodd" d="M160.843 110.671V113.786H163.719V112.108C163.719 110.918 162.753 109.952 161.562 109.952C161.166 109.952 160.843 110.274 160.843 110.671Z" fill="#E9E3D5"/>
<path fill-rule="evenodd" clip-rule="evenodd" d="M181.97 133.141C181.628 132.802 181.452 132.328 181.452 131.845V127.205C181.452 125.339 180.845 123.523 179.725 122.03L174.549 115.128C173.464 113.68 171.758 112.828 169.949 112.828H155.999C153.954 112.828 152.062 113.914 151.031 115.681L145.986 124.33L139.945 125.055C139.76 125.077 139.577 125.107 139.397 125.146L134.868 130.716V135.832C134.868 137.42 136.155 138.708 137.743 138.708H179.629C181.218 138.708 182.505 137.42 182.505 135.832V134.421C182.505 133.94 182.313 133.479 181.97 133.141Z" fill="#FFB545"/>
<path fill-rule="evenodd" clip-rule="evenodd" d="M181.972 133.142C181.627 132.803 181.451 132.329 181.451 131.845V130.081V127.205C181.451 125.414 180.881 123.571 179.725 122.03L174.549 115.128C173.957 114.338 173.179 113.727 172.301 113.333C171.502 114.332 171.446 115.782 172.249 116.853L175.592 121.31L172.637 124.33H175.682C177.26 124.33 178.566 125.596 178.575 127.175V127.205V131.845V131.865C178.577 132.388 177.986 132.702 177.569 132.387C176.247 131.391 174.603 130.8 172.825 130.8C169.478 130.8 166.612 132.89 165.46 135.832H163.719V115.703H160.843V135.832H149.362C148.25 133.296 145.718 131.519 142.776 131.519C139.834 131.519 137.303 133.296 136.191 135.832H134.868C134.868 137.42 136.155 138.708 137.743 138.708H179.629C181.218 138.708 182.505 137.42 182.505 135.832V134.476C182.505 133.979 182.325 133.49 181.972 133.142Z" fill="#FF7E40"/>
<path fill-rule="evenodd" clip-rule="evenodd" d="M155.045 127.924H157.92C158.317 127.924 158.639 127.602 158.639 127.205C158.639 126.808 158.317 126.487 157.92 126.487H155.045C154.647 126.487 154.325 126.808 154.325 127.205C154.325 127.602 154.647 127.924 155.045 127.924Z" fill="#35404A"/>
<path fill-rule="evenodd" clip-rule="evenodd" d="M166.547 127.924H169.422C169.819 127.924 170.141 127.602 170.141 127.205C170.141 126.808 169.819 126.487 169.422 126.487H166.547C166.149 126.487 165.827 126.808 165.827 127.205C165.827 127.602 166.149 127.924 166.547 127.924Z" fill="#35404A"/>
<path fill-rule="evenodd" clip-rule="evenodd" d="M153.516 117.13L149.315 124.33H160.843V115.703H156C154.981 115.703 154.029 116.25 153.516 117.13Z" fill="#87F8F4"/>
<path fill-rule="evenodd" clip-rule="evenodd" d="M175.268 120.879L172.249 116.853C171.706 116.129 170.854 115.703 169.948 115.703H163.719V124.33H173.543C174.734 124.33 175.7 123.364 175.7 122.173C175.7 121.707 175.548 121.252 175.268 120.879Z" fill="#87F8F4"/>
<path fill-rule="evenodd" clip-rule="evenodd" d="M179.055 127.206C178.26 127.206 177.617 127.85 177.617 128.643C177.617 129.438 178.26 130.081 179.055 130.081H181.451V127.206H179.055Z" fill="#C5324F"/>
<path fill-rule="evenodd" clip-rule="evenodd" d="M135.655 127.813C135.651 127.82 135.646 127.83 135.642 127.838C135.591 127.924 135.543 128.013 135.497 128.102C135.094 128.893 134.868 129.783 134.868 130.716H136.52C138.109 130.716 139.397 129.429 139.397 127.841V125.146C137.838 125.483 136.466 126.439 135.655 127.813Z" fill="#E9E3D5"/>
<path fill-rule="evenodd" clip-rule="evenodd" d="M142.775 143.74C140.001 143.74 137.743 141.483 137.743 138.707C137.743 135.932 140.001 133.675 142.775 133.675C145.55 133.675 147.807 135.932 147.807 138.707C147.807 141.483 145.55 143.74 142.775 143.74Z" fill="#596775"/>
<path fill-rule="evenodd" clip-rule="evenodd" d="M143.804 133.781C143.214 134.871 143.379 136.262 144.3 137.183L141.251 140.233C140.329 139.311 138.939 139.146 137.85 139.736C138.326 142.019 140.353 143.739 142.775 143.739C145.55 143.739 147.808 141.482 147.808 138.707C147.808 136.285 146.087 134.258 143.804 133.781Z" fill="#35404A"/>
<path fill-rule="evenodd" clip-rule="evenodd" d="M144.932 138.708C144.932 139.899 143.966 140.865 142.775 140.865C141.585 140.865 140.619 139.899 140.619 138.708C140.619 137.517 141.585 136.551 142.775 136.551C143.966 136.551 144.932 137.517 144.932 138.708Z" fill="#E9E3D5"/>
<path fill-rule="evenodd" clip-rule="evenodd" d="M172.824 143.74C170.05 143.74 167.792 141.483 167.792 138.707C167.792 135.932 170.05 133.675 172.824 133.675C175.599 133.675 177.857 135.932 177.857 138.707C177.857 141.483 175.599 143.74 172.824 143.74Z" fill="#596775"/>
<path fill-rule="evenodd" clip-rule="evenodd" d="M173.853 133.781C173.263 134.871 173.428 136.262 174.349 137.183L171.3 140.233C170.378 139.311 168.988 139.146 167.898 139.736C168.375 142.019 170.402 143.739 172.824 143.739C175.599 143.739 177.856 141.482 177.856 138.707C177.856 136.285 176.136 134.258 173.853 133.781Z" fill="#35404A"/>
<path fill-rule="evenodd" clip-rule="evenodd" d="M174.981 138.708C174.981 139.899 174.015 140.865 172.824 140.865C171.634 140.865 170.668 139.899 170.668 138.708C170.668 137.517 171.634 136.551 172.824 136.551C174.015 136.551 174.981 137.517 174.981 138.708Z" fill="#E9E3D5"/>
</svg>
